<svg xmlns="http://www.w3.org/2000/svg" xmlns:xlink="http://www.w3.org/1999/xlink" xmlns:xodm="http://www.corel.com/coreldraw/odm/2003" xml:space="preserve" width="985.261mm" height="985.261mm" style="shape-rendering:geometricPrecision; text-rendering:geometricPrecision; image-rendering:optimizeQuality; fill-rule:evenodd; clip-rule:evenodd" viewBox="0 0 98526.1 98526.1"> <defs> <style type="text/css"> .fil0 {fill:#0B3053;fill-rule:nonzero} </style> </defs> <g id="Layer_x0020_1"> <metadata id="CorelCorpID_0Corel-Layer"></metadata> <g id="_1794144658912"> <g id="g10"> <g id="g12"> <g> <path id="path14" class="fil0" d="M71556.15 47581.24c4050.43,-1627.91 7791.6,-3340.12 11076.69,-5080.77 -46.82,-4106.19 -601.37,-7009.84 -1766.83,-9352.27 -1173.58,2835.79 -2891.13,6966.71 -3398.14,8162.37 -182.04,429.59 -441.09,701.27 -781.66,701.27 -337.91,0 -540.59,-196.32 -785.06,-677.15 -365.01,-717.9 -2637.51,-5426.07 -4344.9,-8993l0 15239.55 -0.1 0zm-50437.59 -8165.75l0 -14650.7c-2953.14,3959.45 -4831.27,9464.69 -5256.04,14650.7l5256.04 0zm77038.96 -9711.21c0,9304.72 -22454.12,21393.68 -52229.89,28383.19 -9273.2,2176.71 -19858.08,3893.23 -28294.99,3893.23 -12269.67,0 -17273.13,-4353.73 -17273.13,-9259.65 0,-2995.44 1812.01,-5802.99 5608.32,-8340.29 201.65,-134.82 416.24,-234 589.87,-234 220.03,0 355.76,139.94 355.76,323.94 0,164.38 -90.86,299.5 -312.13,473.74 -2977.68,2349.21 -4489.88,4794.82 -4489.88,7331.82 0,3474.94 3802.78,7243.52 15318,7243.52 1119.15,0 2356.9,-39.01 3689.21,-114.48l0 -14278.51 -5237.76 0c182.25,2534.23 616.67,4730.65 1486.02,7836.06 98.05,350.74 153.8,638.43 153.8,811.96 0,486.98 -230.91,762.36 -946.66,1025.21 -859.29,315.82 -1614.26,583.09 -2382.47,839.06 -312.34,104.21 -576.22,153.19 -802.31,153.19 -529.9,0 -843.27,-299.81 -1100.67,-903.95 -1642.7,-3857.61 -2239.65,-8822.87 -2239.65,-12808.82 0,-11416.85 6102.69,-22657.21 14781.3,-29194.02 422.72,-324.24 827.87,-454.33 1109.31,-454.33 586.27,0 917.09,433.59 917.09,921.92l0 45561.96c1359.73,-150.42 2773.56,-328.05 4229.6,-533.09l0 -8300.56c0,-1051.29 412.75,-1413.32 1540.02,-1413.32l2733.21 0c1126.76,0 1484.27,362.03 1484.27,1413.32l0 7384.08c1556.25,-275.78 3137.65,-577.65 4732.3,-906l0 -7823.13c0,-1462.19 -384.73,-2028.96 -1500.6,-2690.49 -1131.48,-669.96 -3347.52,-1992 -4914.34,-2936.61 -2787.83,-1680.9 -4074.97,-3196.79 -4074.97,-6733.84l0 -24065.81c0,-1766.52 367.17,-2905.4 1984.61,-3934.71 3135.8,-1994.67 8678.71,-3874.55 11389.95,-3874.55 1674.84,0 2386.58,787.83 2386.58,2106.07l0 27237.44c0,1051.29 -354.54,1413.63 -1481.19,1413.63l-2792.04 0c-1126.76,0 -1480.58,-362.34 -1480.58,-1413.63l0 -21493.8c0,-832.59 -187.79,-1141.64 -849.94,-1141.64 -512.04,0 -1498.24,348.79 -2258.13,818.01 -826.85,510.71 -1011.25,1059.81 -1011.25,2067.67l0 20990.28c0,1506.04 250.22,1943.43 1467.94,2690.8 1469.7,901.9 3606.26,2167.48 4913.73,2936.61 2914.94,1713.86 4072.91,3401.22 4072.91,6733.85l0 7799.4c1967.15,-476.72 3926.5,-987.12 5867.88,-1525.75l0 -43386.69c-691.72,-87.27 -2010.27,-236.05 -3350.6,-380.31 -1077.47,-115.81 -1243.9,-558.96 -1243.9,-1328.41l0 -2902c0,-854.36 437.7,-1324 1377.69,-1324 3516.31,0 9842.33,1269.99 12482.82,2324.36 1053.35,420.76 1271.02,820.78 1271.02,1580.68l0 3284.68c0,699.22 -358.95,1024.8 -895.84,1024.8 -228.25,0 -479.49,-66.53 -1009.91,-240.06 -1189.19,-389.44 -2222.2,-698.8 -2897.29,-885.26l0 40540.64c2262.55,-707.33 4483.41,-1449.67 6644.11,-2219.84l0 -40743.42c0,-597.36 322.91,-1022.13 889.37,-1022.13 595.31,0 922.33,470.66 1354.59,1467.95 1677.2,3870.54 5673,13104.21 8868.35,20468.99 1150.17,-3191.65 2557.33,-7098.85 2850.78,-7943.66 214.59,-619.03 523.95,-925 990.91,-925 361.32,0 657.43,183.69 1095.14,729.4 3645.68,5000.59 5875.37,10618.56 6490.7,17382.28 5109.94,-3372.37 8193.99,-6717.52 8193.99,-9633.49 0,-2873.16 -2758.37,-5343.62 -9386.56,-5674.34 -307.3,-15.61 -481.85,-165.41 -481.85,-392.53 0,-209.56 173.21,-375.89 510.7,-375.89 7512.43,0 11106.88,3255.21 11106.88,6558.27l-0.2 0zm-56581.57 31782.96l0 11776.12c0,832.38 -340.26,1148.21 -1002.41,1148.21 -706,0 -1961.1,-268.6 -2679.62,-694.6 -836.08,-496.12 -1050.26,-997.59 -1050.26,-2085.33l0 -9294.86c-1943.85,342.01 -3866.64,624.77 -5758.64,885.77l1.03 10371.62c0,2160.7 646.75,3333.97 2699.95,4497.69 2681.66,1520.31 8304.77,2887.73 11111.7,2887.73 1706.05,0 2530.83,-958.67 2530.83,-2400.85l0 -18391.77c-1956.98,467.89 -3910.89,902.3 -5852.58,1300.27zm-20457.39 2623.25l0 3822.59c0,1355.52 288.11,1887.27 1080.66,2543.37 814.41,673.75 1787.06,1474.1 2833.83,2327.54 359.87,293.65 722.52,434.31 1028.7,434.31 461.73,0 794.91,-316.54 794.7,-974.59l0 -8562.48c-1930.9,170.44 -3877.72,306.99 -5737.89,409.26zm32177.85 -5399.27l0 20812.54c0,696.14 355.88,1117.62 1118.24,1117.62 820.37,0 2484.63,-361.62 3493.52,-696.86 842.86,-281.02 1122.34,-691.31 1122.34,-1502.23l0 -21383.83c-1851.33,562.04 -3764.58,1113.1 -5734.1,1652.76zm18259.74 -5887.29c-1871.36,722.94 -3831.73,1436.43 -5881.43,2137.59l0 20975.7c0,745.63 343.34,1111.05 992.25,1111.05 243.44,0 480.21,-38.71 815.65,-180.3 690.69,-290.78 2542.75,-1296.89 3250.38,-1800.41 708.05,-504.03 823.15,-902.61 823.15,-1946.82l0 -20296.81zm16805.65 -8158.25c-308.33,7462.53 -2958.07,15455.47 -8725.43,22401.13 -278.45,333.9 -488.63,451.67 -821.4,451.67 -333.8,0 -581.04,-119.92 -879.21,-355.87 -528.36,-418.4 -1814.98,-1435.4 -2207.92,-1760.37 -363.99,-301.96 -562.35,-592.12 -562.35,-961.96 0,-351.76 174.54,-684.33 407.1,-1019.77 3846.01,-5552.05 5912.03,-10221.2 6692.67,-15274.87 1632.33,-782.69 4366.57,-2328.77 6096.44,-3479.96l0.1 0zm0 0l0 0 0 0z"></path> </g> <path id="path16" class="fil0" d="M4665.8 91857.61l-1373.48 -3497.73 -1383.65 3497.73 2757.24 0 -0.11 0zm1120.5 2221.17c-165.72,0 -321.68,-97.55 -389.96,-263.16l-486.99 -1237.03 -3234.57 0 -486.99 1237.03c-68.28,165.72 -224.04,263.16 -389.76,263.16 -263.05,0 -438.62,-204.43 -438.62,-428.57 0,-48.57 9.96,-107.3 29.57,-155.86l2240.57 -5592.2c107.3,-263.16 360.49,-438.42 662.77,-438.42 282.15,0 535.66,175.26 642.64,438.42l2260.4 5592.2c19.61,48.56 29.15,107.29 29.15,155.86 0,194.98 -175.26,428.57 -438.21,428.57z"></path> <g> <path id="path18" class="fil0" d="M9456.11 94137.09c-954.36,0 -1743.63,-321.57 -2279.69,-808.46 -87.38,-77.72 -126.5,-175.27 -126.5,-292.31 0,-194.57 146,-409.27 380,-409.27 77.83,0 165.51,9.86 233.89,78.14 457.93,399.4 1071.42,711.13 1821.87,711.13 1159.2,0 1529.35,-623.55 1529.35,-1120.29 0,-1675.76 -3848.27,-750.15 -3848.27,-3069.06 0,-1061.56 954.88,-1802.16 2231.13,-1802.16 828.28,0 1568.47,253.41 2084.82,691.73 87.79,77.72 136.46,175.26 136.46,292.42 0,194.56 -155.97,389.44 -380,389.44 -87.69,0 -165.52,-29.16 -233.9,-87.58 -477.33,-389.55 -1071.72,-565.02 -1665.8,-565.02 -779.61,0 -1334.88,409.26 -1334.88,1032.6 0,1461.48 3848.06,623.45 3848.06,3049.45 0,945.02 -642.64,1909.35 -2396.64,1909.35l0.1 -0.11zm0 0l0 0 0 0z"></path> </g> <path id="path20" class="fil0" d="M17140.52 88243.24l-1773.2 0 0 5436.23c0,224.04 -175.27,399.31 -409.06,399.31 -224.04,0 -399.3,-175.27 -399.3,-399.31l0 -5436.23 -1763.55 0c-194.88,0 -350.43,-146.01 -350.43,-370.25 0,-194.88 155.55,-350.74 350.43,-350.74l4345.11 0c195.08,0 350.84,145.9 350.84,370.15 0,194.87 -155.76,350.84 -350.84,350.84z"></path> <g> <path id="path22" class="fil0" d="M24717.73 93679.47c0,224.04 -175.26,399.31 -409.05,399.31 -224.04,0 -399.51,-175.27 -399.51,-399.31l0 -5007.87 -2182.26 5280.37c-29.16,77.73 -97.54,126.7 -204.53,126.7 -78.13,0 -155.96,-48.97 -185.12,-126.7l-2172.61 -5280.37 0 5007.87c0,224.04 -175.26,399.31 -409.26,399.31 -223.93,0 -399.3,-175.27 -399.3,-399.31l0 -5553.49c0,-350.43 292.21,-652.6 672.21,-652.6 263.06,0 535.76,146.31 643.06,409.26l1860.57 4530.23 1870.54 -4530.33c107.29,-262.95 370.34,-409.26 642.95,-409.26 360.49,0 672.21,302.17 672.21,652.6l0 5553.49 0.1 0.1zm0 0l0 0 0 0z"></path> </g> <path id="path24" class="fil0" d="M29055.14 93679.47c0,224.04 -175.27,399.31 -409.06,399.31 -223.93,0 -399.3,-175.27 -399.3,-399.31l0 -5826.09c0,-224.14 175.37,-389.55 418.81,-389.55 224.04,0 389.55,165.41 389.55,389.55l0 5826.09z"></path> <g> <path id="path26" class="fil0" d="M35707.35 93620.74c0,234 -194.57,458.04 -486.98,458.04 -155.86,0 -311.73,-77.73 -399.72,-204.43l-3682.64 -5036.83 0 4842.05c0,224.04 -175.27,399.31 -409.06,399.31 -224.04,0 -399.2,-175.27 -399.2,-399.31l0 -5728.75c0,-262.85 214.38,-486.99 516.14,-486.99 165.72,0 321.69,68.28 428.67,214.39l3624.23 4919.98 0 -4744.82c0,-224.14 175.57,-389.55 419.01,-389.55 223.84,0 389.45,165.41 389.45,389.55l0 5767.36 0.1 0zm0 0l0 0 0 0z"></path> </g> <path id="path28" class="fil0" d="M41316.49 88243.24l-1773.3 0 0 5436.23c0,224.04 -175.26,399.31 -409.16,399.31 -223.83,0 -398.99,-175.27 -398.99,-399.31l0 -5436.23 -1763.76 0c-194.57,0 -350.43,-146.01 -350.43,-370.25 0,-194.88 155.86,-350.74 350.43,-350.74l4345.21 0c195.29,0 350.74,145.9 350.74,370.15 0,194.87 -155.55,350.84 -350.74,350.84z"></path> <g> <path id="path30" class="fil0" d="M46497.07 94020.35l-3380.48 0c-321.58,0 -584.42,-263.15 -584.42,-584.42l0 -5329.35c0,-321.48 262.84,-584.33 584.42,-584.33l3380.48 0c194.87,0 350.73,145.9 350.73,370.15 0,194.87 -155.86,350.84 -350.73,350.84l-3156.75 0 0 2094.47 3088.47 0c194.87,0 350.74,146.31 350.74,370.45 0,194.46 -155.87,350.74 -350.74,350.74l-3088.47 0 0 2240.57 3156.75 0c194.87,0 350.73,155.86 350.73,350.74 0,224.14 -155.86,370.25 -350.73,370.25l0 -0.11zm0 0l0 0 0 0z"></path> </g> <g> <path id="path32" class="fil0" d="M48832.31 88243.24l0 2484.22 1705.33 0c779.3,0 1295.86,-506.6 1295.86,-1247.09 0,-740.29 -516.46,-1237.03 -1295.86,-1237.03l-1705.33 0 0 -0.1zm2153.3 3127.07l1393.3 2114.08c39.02,68.28 58.42,136.25 58.42,204.43 0,194.98 -165.71,389.85 -399.3,389.85 -126.7,0 -243.44,-58.32 -321.58,-175.26l-1588.18 -2465.03 -1295.86 0 0 2240.99c0,224.04 -175.27,399.3 -409.16,399.3 -223.83,0 -398.99,-175.26 -398.99,-399.3l0 -5572.9c0,-321.47 262.84,-584.32 584.42,-584.32l2026.6 0c1188.16,0 2035.74,759.59 2035.74,1958.01 0,1169.17 -788.85,1812.22 -1685.31,1890.05l-0.1 0.1zm0 0l0 0 0 0z"></path> </g> <g> <path id="path34" class="fil0" d="M59225.08 93620.74c0,234 -194.57,458.04 -486.99,458.04 -155.86,0 -311.72,-77.73 -399.71,-204.43l-3682.75 -5036.83 0 4842.05c0,224.04 -175.27,399.31 -409.16,399.31 -223.83,0 -399,-175.27 -399,-399.31l0 -5728.75c0,-262.85 214.28,-486.99 516.15,-486.99 165.41,0 321.58,68.28 428.57,214.39l3624.32 4919.98 0 -4744.82c0,-224.14 175.58,-389.55 419.02,-389.55 223.83,0 389.45,165.41 389.45,389.55l0 5767.36 0.1 0zm0 0l0 0 0 0z"></path> </g> <path id="path36" class="fil0" d="M64512.64 91857.61l-1373.59 -3497.63 -1383.75 3497.63 2757.34 0zm1120.29 2221.17c-165.72,0 -321.58,-97.55 -389.86,-263.16l-486.99 -1237.03 -3234.78 0 -486.98 1237.03c-68.28,165.72 -223.84,263.16 -389.45,263.16 -263.16,0 -438.73,-204.43 -438.73,-428.57 0,-48.57 9.86,-107.3 29.57,-155.86l2240.58 -5592.1c106.98,-263.15 360.59,-438.42 662.87,-438.42 282.15,0 535.55,175.27 642.43,438.42l2260.6 5592.1c19.71,48.56 29.16,107.29 29.16,155.86 0,194.98 -175.27,428.57 -438.42,428.57z"></path> <path id="path38" class="fil0" d="M70316.35 88243.24l-1773.3 0 0 5436.23c0,224.04 -175.27,399.31 -409.16,399.31 -223.83,0 -399,-175.27 -399,-399.31l0 -5436.23 -1763.75 0c-194.57,0 -350.43,-146.01 -350.43,-370.25 0,-194.88 155.86,-350.74 350.43,-350.74l4345.21 0c195.29,0 350.74,145.9 350.74,370.15 0,194.87 -155.56,350.84 -350.74,350.84z"></path> <path id="path40" class="fil0" d="M72437.62 93679.47c0,224.04 -175.27,399.31 -409.16,399.31 -224.14,0 -399.31,-175.27 -399.31,-399.31l0 -5826.09c0,-224.14 175.27,-389.55 419.02,-389.55 223.83,0 389.45,165.41 389.45,389.55l0 5826.09z"></path> <path id="path42" class="fil0" d="M76722.45 88135.94c-1461.58,0 -2386.89,1120.6 -2386.89,2640.5 0,1510.04 925.31,2639.88 2386.89,2639.88 1441.87,0 2386.89,-1129.84 2386.89,-2639.88 0,-1519.9 -945.02,-2640.5 -2386.89,-2640.5zm0 6001.15c-1919.3,0 -3224.61,-1441.76 -3224.61,-3360.76 0,-1919.71 1305.31,-3361.47 3224.61,-3361.47 1919.31,0 3224.92,1441.76 3224.92,3361.47 0,1919 -1305.72,3360.76 -3224.92,3360.76z"></path> <g> <path id="path44" class="fil0" d="M86442.8 93620.74c0,234 -194.57,458.04 -486.98,458.04 -155.87,0 -311.73,-77.73 -399.72,-204.43l-3682.75 -5036.83 0 4842.05c0,224.04 -175.26,399.31 -409.16,399.31 -223.83,0 -398.99,-175.27 -398.99,-399.31l0 -5728.75c0,-262.85 214.28,-486.99 516.14,-486.99 165.41,0 321.58,68.28 428.57,214.39l3624.33 4919.98 0 -4744.82c0,-224.14 175.57,-389.55 419.01,-389.55 223.84,0 389.45,165.41 389.45,389.55l0 5767.36 0.1 0zm0 0l0 0 0 0z"></path> </g> <g> <path id="path46" class="fil0" d="M91730.36 91857.61l-1373.89 -3497.63 -1383.45 3497.63 2757.34 0zm1120.29 2221.17c-165.72,0 -321.58,-97.55 -389.86,-263.16l-486.98 -1237.03 -3234.78 0 -486.99 1237.03c-68.28,165.72 -223.83,263.16 -389.45,263.16 -263.15,0 -438.73,-204.43 -438.73,-428.57 0,-48.57 9.86,-107.3 29.57,-155.86l2240.58 -5592.1c107.29,-263.15 360.59,-438.42 662.56,-438.42 282.56,0 535.86,175.27 642.85,438.42l2260.6 5592.1c19.71,48.56 29.16,107.29 29.16,155.86 0,194.98 -175.27,428.57 -438.43,428.57l-0.1 0zm0 0l0 0 0 0z"></path> </g> <g> <path id="path48" class="fil0" d="M97806.78 94020.35l-2951.91 0c-321.58,0 -584.43,-263.15 -584.43,-584.42l0 -5582.55c0,-224.14 175.27,-389.55 418.71,-389.55 224.14,0 389.45,165.41 389.45,389.55l0 5446.09 2728.18 0c194.57,0 350.74,155.86 350.74,350.74 0,224.14 -156.17,370.25 -350.74,370.25l0 -0.11zm0 0l0 0 0 0z"></path> </g> </g> </g> </g> </g> </svg>