<svg xmlns="http://www.w3.org/2000/svg" xmlns:xlink="http://www.w3.org/1999/xlink" xmlns:xodm="http://www.corel.com/coreldraw/odm/2003" xml:space="preserve" width="985.261mm" height="985.261mm" style="shape-rendering:geometricPrecision; text-rendering:geometricPrecision; image-rendering:optimizeQuality; fill-rule:evenodd; clip-rule:evenodd" viewBox="0 0 98526.1 98526.1"> <defs> <style type="text/css"> .fil1 {fill:#7A7227} .fil0 {fill:#897469} .fil2 {fill:#F13516} </style> </defs> <g id="Layer_x0020_1"> <metadata id="CorelCorpID_0Corel-Layer"></metadata> <g id="_1836603720384"> <path class="fil0" d="M84026.83 52690.62c382.22,280.12 214,436.53 409.96,1454.55 184.76,959.59 1015.65,4110.72 1015.65,4687.47l-2741.74 0 636.35 -3092.71c243.81,-1039.56 446.89,-2049.58 679.78,-3049.31zm-3948.37 -6682.44l-101.85 101.82 -2873.69 8102.2c-329.71,912.02 -2537.51,7830.03 -2947.18,8130.2 0,-673.56 -1157.33,-7382.58 -1285.14,-8147.34l-1002.65 -6016.57c-106.86,-641.98 -191.58,-1496.18 -357.76,-2068.49l-96.5 -96.53 -7348.35 -13.56 -1522.73 5168.26c-585.02,2005.34 -866.61,2758 -1181.24,4741.2 -90.31,568.48 89.45,365.99 -257.39,620.12l-2040.72 -7830.34c-241.17,-970.79 -485.57,-1772.72 -701.33,-2698.96l-7567.94 0c-120.7,1451.91 -1377.79,8204.61 -1626.92,9999.19l-1663.22 10072.09 7129.01 0 987.92 -9650.61c6.19,-258.85 -17.41,-489.35 20.95,-747.03 2.37,-15.08 38.68,-194.53 61.69,-267.43l135.77 -302.82c159.68,1917.94 930.06,3917.38 1439.81,5579.73l1631.36 5388.16 4386.99 0c544.85,-2338.57 3290.45,-9374.93 3290.45,-10967.89l611.57 5420.92c60.22,420.03 85.59,989.38 125.45,1300.19 57.27,443.34 106.54,1051.65 133.13,1402.32l226.67 2844.46 13161.54 0c9.74,-445.4 405.26,-2114.53 548.4,-2412.93l5483.82 0c13.56,610.39 485.26,1652.9 548.4,2412.93l7787.25 0c-36.59,-437.72 -2299.3,-6516.85 -2645.23,-7554.95 -780.12,-2343.29 -1922.4,-5175.65 -2687.46,-7512.45l-1325.56 -3719.61c-168.54,-425.93 -296.63,-921.2 -470.79,-1284.27l-8006.53 7.99z"></path> <path class="fil0" d="M11528.95 61245.58l-1425.6 0 0 -3290.17c715.44,0 1925.62,62.89 2443.02,188.9 1875.17,456.62 1916.21,3101.27 -1017.42,3101.27zm-109.5 -7567.64l-1316.1 0 0 -2742.05c1806.67,0 2851.55,-220.8 2851.55,1535.42 0,789.28 -744.11,1206.63 -1535.45,1206.63zm-8116.34 12393.53l10638.8 0c3381.36,0 6690.43,-1930.35 6690.43,-5264.48 0,-1966.67 -626.93,-3419.16 -2197.2,-4383.45 -419.12,-257.09 -1028.02,-383.44 -1312.56,-771.56 711.03,-376.04 881.34,-356.54 1456.32,-956.61 1406.45,-1467.55 1392.28,-4095.37 593.57,-5699.59 -1157.32,-2324.66 -4314.36,-2995.59 -6875.78,-2995.59l-8993.58 0 0 20071.28z"></path> <polygon class="fil0" points="33684.07,66071.47 41142.23,66071.47 41142.23,59051.95 46407.02,59051.95 46407.02,53787.44 41142.23,53787.44 41142.23,51813.41 47174.73,51813.41 47174.73,46000.19 33684.07,46000.19 "></polygon> <polygon class="fil0" points="23045.27,66071.47 30393.9,66071.47 30393.9,46000.19 23045.27,46000.19 "></polygon> <path class="fil1" d="M71413.97 38651.87l88.54 -987.02c311.99,-4244.44 -4682.72,-6798.46 -8113.97,-4076.77 -736.12,583.81 -1643.77,1899.94 -1733.18,3092.68 -435.39,5796.68 6190.71,7438.95 8962.27,3587.98 265.45,-538.95 530.89,-1077.92 796.34,-1616.87z"></path> <rect class="fil2" x="71324.72" y="37485.01" width="8723.75" height="8575.96"></rect> </g> </g> </svg>