<svg xmlns="http://www.w3.org/2000/svg" xmlns:xlink="http://www.w3.org/1999/xlink" xmlns:xodm="http://www.corel.com/coreldraw/odm/2003" xml:space="preserve" width="985.261mm" height="985.261mm" style="shape-rendering:geometricPrecision; text-rendering:geometricPrecision; image-rendering:optimizeQuality; fill-rule:evenodd; clip-rule:evenodd" viewBox="0 0 98526.1 98526.1"> <defs> <style type="text/css"> .fil0 {fill:#B2292E} .fil1 {fill:#BFCE30} </style> </defs> <g id="Layer_x0020_1"> <metadata id="CorelCorpID_0Corel-Layer"></metadata> <g id="_1794095533776"> <path class="fil0" d="M52168.69 49183.27l107.28 0c15.02,674.41 721,3126.1 751.01,3486.85l-1609.31 0c20.34,-244.44 113.54,-600.37 171.57,-847.65 62.88,-267.95 137.1,-613.65 190.21,-882.68 117.24,-593.93 256.09,-1185.03 389.24,-1756.52zm-21350.36 7724.73l3969.67 0c227.71,0 143.44,-214.12 199.28,-659.02 38.99,-310.56 48.1,-533.79 73.58,-838.37 67.99,-812.37 424.94,-3829.37 421.5,-4460.11 -1.52,-279.67 -44.95,-258.75 110.29,-372.49 40.18,482.67 201.27,1219.4 341.43,1643.41l1428.83 4686.58 2521.28 0c59.58,-255.71 159.18,-506.81 248.08,-771.15 238.05,-707.88 1516.16,-4652.9 1615.78,-5143.38l120.96 -415.46c0,293.02 33.61,490.11 57.72,800.59l367.37 3924.16c43.35,558.16 111.35,1029.58 111.35,1605.24l7778.4 0c232.12,0 429.15,-1370.31 429.15,-1448.39l3165 0 375.52 1448.39 4506.1 0 -3909.2 -11003.84c-118.88,-329.39 -172.88,-636.92 -382.33,-636.92l-4398.81 0c-231.55,0 -352.19,716.52 -520.72,1142.25l-1334.18 3818.72c-250.13,623.39 -587.69,1810.16 -865.23,2511.28 -168.85,426.55 -281.15,861.25 -444.88,1271.73 -135.67,340.13 -344.34,923.41 -429.15,1287.46l-107.29 0c0,-485.38 -1100.78,-6654.44 -1230.93,-7620.34l-309.14 -1890.25c-34.4,-219.17 -23.17,-520.85 -230.18,-520.85l-4023.31 0c-227.41,0 -235.01,280.1 -333.49,632.11 -65.57,234.33 -140,485.52 -214.57,751.02 -234.26,834.1 -939.43,3150.94 -1075.64,3859.61 -48.04,249.91 -85.11,608.99 -146.55,872.69 -44.32,-51 -20.08,9.01 -85.64,-128.94 -25.45,-53.56 -57.34,-169.48 -65.96,-202.26 -38.88,-147.62 -57.12,-235.29 -95.12,-387.68 -71.62,-287.2 -121.34,-490.18 -201.42,-764.16 -149.63,-511.96 -279.14,-1047.48 -399.31,-1531.89 -127.87,-515.43 -255.45,-1012.96 -405.36,-1525.83l-410.17 -1574.67 -3863.33 -0.95c-197.18,-2.73 -425.73,-47.87 -508.59,81.49l-1850.79 11560.22z"></path> <path class="fil0" d="M11130.96 54118.51l-536.45 0 0 -1877.54c1133.13,0 2092.12,-133.9 2092.12,1072.88 0,305.87 -274.81,566.69 -518.91,661.25 -238.85,92.52 -716.69,143.41 -1036.76,143.41zm160.93 -4398.8l-697.38 0 0 -1609.33c1301.05,0 1609.32,37.34 1609.32,965.59 0,422.92 -460.9,643.74 -911.94,643.74zm-4667.04 -4291.52l0 11479.81 6169.07 0c1001.41,0 2083.68,-383.03 2667.7,-819.16 1656.95,-1237.42 1553.88,-3654.34 -15.64,-4729.67 -168.82,-115.66 -632.54,-360.07 -828.16,-405.66l0 -107.28c841.77,-196.11 1502.03,-1240.32 1502.03,-2306.69 0,-2624.34 -2140.42,-3272.3 -4774.32,-3272.3l-4559.74 0c-123.61,0 -160.94,37.34 -160.94,160.95z"></path> <path class="fil0" d="M23361.81 45428.19l0 11479.81 4291.52 0 0 -4023.3 2950.43 0c123.61,0 160.92,-37.33 160.92,-160.93l0 -2896.78 -3111.35 0 0 -1180.17 3540.52 0 0 -3218.63c0,-123.61 -37.33,-160.95 -160.94,-160.95l-7510.18 0c-123.59,0 -160.92,37.34 -160.92,160.95z"></path> <path class="fil0" d="M17514.6 45428.19l0 11479.81 4291.54 0 0 -11479.81c0,-123.61 -37.34,-160.95 -160.95,-160.95l-3969.65 0c-123.61,0 -160.94,37.34 -160.94,160.95z"></path> </g> <g id="_1833532472304"> <path class="fil1" d="M85882.18 48974.45c0,-137.53 135.39,-382.89 233.8,-487.88l57.88 -66.86c72.08,-78.79 257.54,-200.87 368.77,-245.99 236.46,-95.92 322.79,-90.23 569.07,-90.23 143.33,0 306.92,39.26 409.96,80.07 256.15,101.46 391.91,241.01 521.79,458.26 48.81,81.62 110.68,253.3 110.68,379.36l-2271.95 0 0 -26.73zm-7760.27 -890.96l169.29 0c281.69,0 556.01,121.99 706.15,256.08 100.21,89.49 142.65,139.47 216.73,264.4 60.43,101.94 119.54,252.37 119.54,397.21l-2271.95 0c0,-138.94 73.36,-274.85 125.09,-364.95 108.91,-189.7 321.07,-373.09 529,-459.96 106.78,-44.61 260.66,-92.78 406.15,-92.78zm-3938.04 3483.65l-1675 0c0,-47.47 -17.49,-109.7 -25.99,-152.21 -50.07,-250.33 -89.27,-514.48 -122.8,-768.17 -74,-559.94 -82.12,-1138.16 -65.33,-1699.34 1.27,-42.61 7.15,-40.72 9.23,-79.84 1.54,-28.83 -1.62,-60.38 -0.08,-89.19l44.35 -490.23c18.08,-209.67 55.5,-428.71 88.08,-624.68 128.86,-774.95 350.78,-1509.23 646.51,-2213.47 104.37,-248.55 220.9,-487.97 340.74,-728.41 22.45,-45.04 40.98,-72.68 62.48,-115.73 274.98,-550.49 743.18,-1237.23 1146.04,-1713.93l507.25 -570.82 361.03 -351.74c32.15,-29.73 56.45,-60.44 89.04,-89.14l479.52 -411.44c35.76,-28.27 60.65,-52.33 97.87,-80.32 416.05,-312.92 814.18,-611.7 1274.92,-863.4 648.63,-354.33 885.81,-462.65 1586.35,-739.05 173.02,-68.26 354.09,-127.22 535.3,-177.47l425.79 -117.69c187.02,-53.24 385.55,-91.31 582.15,-130.62 647.75,-129.55 1257.14,-186.37 1960.85,-186.37 1862.48,0 3372.64,472.13 4618.14,1092.91 196.49,97.93 385.46,206.41 575.71,315.26l438.8 273.98c320.48,213.77 627.45,443.34 926.09,686.54 366.5,298.47 775.23,696.6 1087.86,1050.45 253.2,286.58 489.84,587.86 714.38,898.24 27.09,37.43 46.68,68.04 73.9,104.29 51.09,68.02 95.74,141.79 143.29,213.1 143.18,214.72 272.8,443.79 402.32,666.84 43.36,74.69 78.6,159.4 123.4,232.97 158.52,260.32 450.67,977.38 541.79,1240.14 63.73,183.8 121.12,350.32 178.42,543.26 54.37,183.09 108.77,368.26 150.9,561.87 87.46,401.99 172.76,797.49 208.92,1216.6l62.43 837.46 -0.31 534.88c0.02,233.19 -24.88,454.91 -35.8,676.96 -11.3,229.69 -84.91,709.95 -128.33,940.82 -18.65,99.25 -50.41,208.17 -58.61,306.69 -196.84,0 -1543.13,-17.98 -1612.64,8.86l0 -5203.16c0.01,-43.44 6.49,-100.79 -1.77,-140.78 -4.48,-21.75 -4.71,-22.65 -26.72,-26.73 -67.13,-12.44 -890.02,-1.77 -960.47,-1.77l0 5372.44c-60.48,-23.36 -1836.11,-8.86 -2058.12,-8.86 9.48,-6.59 -1.41,-1.03 17.35,-9.38 12.06,-5.37 11.64,-4.41 25.75,-9.89 17.84,-6.91 28.43,-12.51 49.83,-21.46 38.08,-15.9 56.8,-26.04 92.91,-40.71 179.98,-73.08 425.71,-248.63 564.81,-388.53 24.36,-24.51 42.35,-42.51 66.88,-66.75 102.57,-101.41 313.23,-380.66 322.91,-496.8l-724.78 -335.48c-35.17,-16.89 -66.79,-39 -103.83,-47.63 -43.61,82.42 -94.9,166.85 -151.36,240.66 -313.87,410.28 -888.26,614.78 -1435.77,446.61 -159.55,-49.01 -384.68,-177.03 -488.8,-313.06 -37.47,-48.96 -82.84,-97.68 -115.43,-151.87 -33.74,-56.11 -64.81,-111.55 -90.89,-176.39 -50.24,-124.94 -87.69,-269.46 -87.69,-446.88l3180.73 0.01c175.2,0.57 113.43,-7.75 106.62,-240.28l-13.56 -235.9c-6.14,-42.5 -9.1,-70.64 -13.58,-111.17 -39.97,-360.96 -155.54,-713.75 -339.59,-1005.76 -17.9,-28.39 -28.32,-48.17 -48.09,-76.65 -71.37,-102.81 -137.7,-179.39 -224.16,-265.86 -165.71,-165.72 -367.2,-303.28 -595.77,-384.28 -535.37,-189.73 -1135.29,-203.22 -1658.12,5.85 -115.34,46.13 -226.5,100.53 -328.46,161.58 -50.14,30.01 -96.55,63.48 -144.54,96.01 -94.46,64.03 -184.52,145.89 -267.02,223.02l-224.63 265.39c-361.35,515.22 -499.08,1097.65 -410.45,1746.79 17.91,131.21 47.49,271.27 95.85,394.17 102.76,261.12 169.61,396.99 350.12,629.95 18.76,24.23 34.92,38.01 53.52,62.3l122.33 127.14c23.78,22.89 41.53,33.98 67.02,57.71 146.76,136.65 349.64,256.21 534.86,329.37l86.57 38.17 -3136.19 0c57.38,-119.55 158.47,-391.66 210.02,-520.57 72.09,-180.22 139.41,-348.6 211.3,-528.21l1050.05 -2620.7c33.85,-84.71 70.5,-176.22 104.37,-260.93 35.43,-88.66 64.77,-183.97 108.19,-266.02l-1015.71 0c-5.07,60.99 -106.56,294.13 -132.59,366.34l-826.98 2193.38c-27.71,70.97 -131.34,311.91 -136.31,371.54 -30.72,-22.52 -280.72,-688.51 -294.01,-721.67 -98.28,-245.33 -189.57,-487.29 -288.92,-735.69 -97.35,-243.38 -200.51,-489.28 -289.16,-735.44 -21.75,-60.41 -48.21,-121.54 -71.05,-178.42l-145.16 -371.6c-14.66,-39.68 -66.67,-149.19 -69.94,-188.44l-1015.7 0c4.57,54.87 836.33,2073.18 845.24,2094.94l423.74 1046.34c70.59,176.51 135.63,353.75 213.06,526.45l159.96 392.49c17.61,46.99 39.67,88.32 50.83,136.21l-3038.17 0c23.57,-20.5 62.93,-29.47 91.69,-41.96 32.34,-14.06 59.37,-25.81 92.47,-41.15 121.9,-56.48 225.38,-125.99 334.36,-200.24 29.19,-19.89 49.31,-35.08 76.37,-57.25 174.27,-142.74 332.34,-310.32 449.2,-504.14 25.83,-42.81 86.16,-131.71 87.42,-188.78 -32.81,-17.35 -67.37,-28.96 -103.95,-47.5l-308.81 -145.58c-72.79,-33.73 -363.5,-177.84 -415.83,-190.03 -123.49,233.39 -275.12,413.78 -507.32,552.92 -212.27,127.19 -509.62,223.81 -866.43,179.34 -234.59,-29.25 -390.21,-103.11 -562.22,-230.74 -31.81,-23.61 -43.17,-38.6 -72.48,-61.16 -104.28,-80.26 -226.28,-276.23 -273.81,-394.41 -47.79,-118.84 -87.69,-278.18 -87.69,-446.88l3296.55 0c0,-608.65 -97.69,-1182.02 -434.7,-1685.78 -24.53,-36.67 -55.33,-79.26 -84.34,-111.67 -33.63,-37.56 -52.72,-61.78 -89.04,-98.07l-321.3 -266.74c-82.33,-48.55 -158.14,-94.31 -250.38,-132.73 -194.63,-81.05 -401.55,-136.5 -619.74,-155.4 -265.36,-22.98 -455.45,-25.38 -715.4,24.59 -108.48,20.86 -212.06,51.45 -308.4,83.62 -442.38,147.7 -833.16,457.84 -1089.8,843.59 -294.21,442.24 -428.03,898.76 -380.76,1542.56 15.29,208.24 84.7,465.9 149.51,625.63 160.3,395.1 426.37,728.59 787.13,950.3 84.28,51.8 162.75,98.75 254.1,137.87 44.26,18.95 97.07,32.59 136.22,59.79 -234.11,0 -2112.09,-15.03 -2173.95,8.86l0 -5122.97c0,-272.36 35.47,-249.98 -115.8,-249.48 -215.79,0.7 -642.81,-9.41 -829.5,-1.13 -75.05,3.34 -43.66,76.62 -43.66,232.78l0 5131.94zm-2779.79 -2236.32l17.53 757.6c1.18,42.79 7.25,40.63 9.21,79.9 10.73,215.07 28.99,424.21 57.3,628.75 57.54,415.82 118.06,795.16 210.07,1170.91 143.34,585.43 212.19,772.63 395.21,1315.43 102.83,304.97 266.17,675.83 412.49,968.49 40.38,80.75 75.45,150.9 115.83,231.64l115.81 222.77c75.57,153.88 217.49,394.91 313.04,542.22 4.86,7.5 14.27,19.8 18.98,26.74 1.51,2.23 5.76,8.67 7.15,10.94l319.49 489.9c47.95,69.19 91.63,128.79 141.04,197.52 50.09,69.67 98.35,130.96 148.93,198.55 156.55,209.23 326.46,409.81 499.86,604.93 18.05,20.33 19.82,28.22 39.99,49.09 16.39,16.97 29.22,26.71 44.33,44.78 67.81,81.1 418.45,457.64 504.19,529.32 62.04,51.86 115.77,117.11 178.19,169.28l315.79 281.16c119.07,115.92 535.41,432.92 674.37,537.34 330.29,248.23 687.23,467.21 1040.26,679.23 293.99,176.56 604.02,317.12 910,471.05 264.19,132.92 715.77,306.15 978.22,393.85 525.13,175.49 1075.81,328.46 1634.56,432.47 1104.81,205.67 2315.03,234.77 3435.61,95.89 202.16,-25.06 403.95,-53.54 594.53,-91.52 192.75,-38.41 378.89,-71.16 567.47,-118.56 530.81,-133.44 1050.76,-290.52 1556.34,-492.87 84.02,-33.63 158.26,-62.86 240.48,-98.09 41.81,-17.92 75.57,-34.91 117.12,-52.17 44.13,-18.33 81.77,-33.7 124.03,-54.15 78.9,-38.18 150.54,-73 231.16,-107.41 76.37,-32.6 150.66,-74.6 226.21,-112.35 371.55,-185.65 732.2,-403.19 1077.35,-633.3 72.45,-48.29 138.88,-89.64 207.14,-140.33 32.73,-24.31 67.21,-47.13 99.43,-69.86l297.85 -218.9c20.81,-15.7 24.7,-20.39 44.41,-35.78 19.03,-14.86 33.65,-24.36 50.93,-38.17l378.13 -307.91c79.49,-61.85 149.22,-137.15 227.81,-199.84 18.15,-14.48 28.71,-26.75 45.39,-43.72l176.03 -162.53c98.83,-75.42 249.01,-245.38 345.26,-340.77l562.37 -631.53c177.69,-224.98 358.23,-444.8 521.48,-681.31 47.78,-69.2 92.08,-133.62 138.95,-199.62 48.16,-67.8 89.02,-138.2 137.25,-210.21 127.78,-190.8 335.48,-537.06 441.97,-751.92 20.63,-41.63 42.11,-76.77 62.42,-115.78 78.6,-150.98 150.04,-302.7 225.71,-460.33l104.07 -233.98c110.56,-243.41 192.23,-487.58 288.62,-736.5 167.27,-431.92 356.04,-1160.62 437.96,-1620.15 34.6,-194.12 69.83,-386.85 94.46,-591.59 83,-689.96 96.4,-1009.08 96.4,-1703.33 0,-791.39 -126.75,-1683.51 -310.03,-2416.3 -155.87,-623.16 -345.58,-1210.82 -598.99,-1788.78l-216.55 -469.48c-192.35,-384.69 -328.61,-617.22 -546.59,-985.87 -21.26,-35.97 -43.51,-71.71 -65.11,-104.17l-562.7 -800.48c-131.71,-176.39 -272.59,-351.82 -419.61,-515.65 -18.24,-20.33 -25.98,-25.48 -42.39,-46.95 -48.04,-62.86 -114.31,-118.8 -164.13,-183.34 -25.86,-33.47 -54.03,-56.42 -83.29,-85.99l-423.01 -432.32c-32.57,-32.87 -58.02,-48.66 -89.25,-80.04 -30.16,-30.31 -54.24,-57.75 -86.73,-82.54 -86.1,-65.71 -253.02,-233.48 -365.3,-320.74 -222.27,-172.77 -432.99,-359.45 -666.45,-518.52 -36.75,-25.04 -66.65,-47.82 -103.53,-74.66 -35.97,-26.18 -65.55,-42.27 -100.65,-68.63 -227.32,-170.74 -488.74,-314.27 -732.58,-461.32 -213.18,-128.54 -445.08,-244.04 -668.74,-355.87 -38.71,-19.35 -71.78,-37.38 -114.57,-54.71 -118.35,-47.91 -235.38,-114.04 -355.17,-161.08 -7.27,-2.86 -17.47,-6.07 -25.37,-9.38 -11.21,-4.7 -22.08,-10.79 -30.8,-14.89 -327.27,-153.92 -858.14,-325.68 -1192.54,-429.26 -552.44,-171.1 -1098.23,-273.28 -1689.98,-359.23 -78.08,-11.35 -661.51,-75.57 -778.76,-76.57 -162.97,-1.39 -323.83,-17.49 -499.26,-17.49l-392.02 0c-121.28,0 -215.83,9.24 -329.86,8.7 -200.55,-0.93 -815.41,66.08 -948.16,85.36 -627.43,91.14 -1091.13,192.94 -1695.92,362.2 -85.29,23.87 -169.44,55.64 -258.36,80.2 -296.49,81.89 -816.62,300.74 -1113.03,428.33l-237.07 110.41c-267.82,134.01 -531.53,260.49 -788.32,414.48 -37.5,22.49 -69.77,39.8 -107.01,62.27 -37.52,22.66 -67.41,40.62 -105.78,63.5l-213.8 133.68c-212.41,125.32 -403.74,279.41 -606.93,417.67 -203.47,138.44 -383.64,305.02 -577.09,456.42l-135.33 114.16c-105.74,98.39 -214.75,188.21 -316.17,289.66 -35.78,35.77 -53.9,52.22 -93.15,85.04 -121.97,101.95 -226.44,235.36 -338.84,347.2l-641.05 731.04c-381.58,471.28 -877.24,1208.45 -1152.14,1761.28l-227.89 458.16c-19.82,48.03 -38.88,80.07 -55.97,122.23 -32.86,81 -68.07,151.93 -103.07,235.49 -281.87,672.91 -511.02,1370.76 -654.75,2089.41 -19.68,98.4 -39.95,188.49 -56.75,290.73l-90.39 595.64c-14.42,104.18 -23.62,199.57 -32.57,306 -8.79,104.6 -22.93,207.74 -25.72,321.75 -0.99,40.56 -5.93,37.98 -8.67,71.51l-18.6 417.98c-0.08,59.46 0.31,119.02 0.31,178.49z"></path> <path class="fil1" d="M92680.21 60200.54c-166.24,0 -331.36,-67.5 -443.38,-171.39 -87.88,-81.5 -198.11,-251.56 -198.11,-416.64 0,-214.95 36.96,-359.89 193.59,-510.27 208.2,-199.88 548.25,-230.95 790.2,-72.59 40.09,26.25 54.22,41.84 90.59,69.77 29.06,22.31 47.8,50.52 71.21,80.26 24.81,31.51 43.89,60.96 63.3,97.08 106.26,197.74 82.57,471.36 -50.42,656.72 -114.76,159.96 -315.81,267.06 -516.98,267.06zm-766.23 -686.03c0,263.44 51.75,421.88 229.29,599.3 215.93,215.79 551.76,264.89 838.73,147.97 166.09,-67.68 299.67,-200.13 379.71,-359.8 241.11,-480.98 -93.46,-1100.25 -690.41,-1100.25 -142.16,0 -314.56,50.66 -418.83,124.65 -32.36,22.96 -76.1,53.97 -104.79,82.32 -129.08,127.51 -233.7,311.6 -233.7,505.81z"></path> <path class="fil1" d="M92760.4 59469.95l-249.47 0 0 -204.91c120.26,0 418.74,-34.13 418.74,98 0,87.48 -95.21,106.91 -169.27,106.91zm-374.21 507.85l124.74 0 0 -383.11c183.9,0 113.57,-25.19 317.17,279.77 24.68,36.96 42.98,69.07 65.94,103.34l142.55 0c-13.15,-49.26 -195.59,-298.11 -240.56,-383.11 328.16,0 377.61,-454.4 -26.73,-454.4l-383.11 0 0 837.51z"></path> </g> </g> </svg>