<svg xmlns="http://www.w3.org/2000/svg" height="512" viewBox="0 0 60 60" width="512"><g id="010---Fire-Extinguisher" transform="translate(0 -1)"><path id="Shape" d="m37.06 25.34c-3.26 2.78-3.75 6.58-1.46 11.3 1.17 2.41 1.58 4.74 1 5.68-.09.14-.37.58-1.46.58-1.54 0-2.53-.91-2.94-2.71-.1470368-.6316522-.6833646-1.0972725-1.3294065-1.1541424-.6460418-.0568699-1.2554667.307892-1.5105935.9041424-.62 1.47-1.36 4.19-1.36 8.86 0 8.43 8 12.2 16 12.2s16-3.77 16-12.2c0-4.67-.74-7.39-1.36-8.86-.2551268-.5962504-.8645517-.9610123-1.5105935-.9041424-.6460419.0568699-1.1823697.5224902-1.3294065 1.1541424-.41 1.8-1.4 2.71-2.94 2.71-1.09 0-1.37-.44-1.46-.58-.58-.94-.17-3.27 1-5.68 2.29-4.72 1.8-8.52-1.46-11.3-1.87-1.59-4.43-3.51-5.65-5.6-.2662615-.460639-.7579441-.7443459-1.29-.7443459s-1.0237385.2837069-1.29.7443459c-1.23 2.1-3.79 4.01-5.65 5.6zm2.25 25.15c3.16 1.45 6.49-1.56 5.55-4.49 6.85 2.44 4.25 13-.86 13-3.7 0-5.87-5.53-4.69-8.51zm4.69-29c1.654181 2.0307884 3.547935 3.8540303 5.64 5.43 3.35 2.85 2.15 6.44 1 8.9-.64 1.18-2.4 5.18-.93 7.56.6919191 1.0458591 1.9007374 1.6291619 3.15 1.52 1.9069175.0538796 3.6524906-1.064874 4.4-2.82.5448846 2.1970402.7937534 4.4570384.74 6.72 0 5.37-4.09 8.48-9.12 9.65 1.4174624-1.847483 2.1650002-4.1218316 2.12-6.45.1065099-3.5526292-2.109827-6.7616581-5.47-7.92-.696226-.2406818-1.4683952-.0791549-2.0097708.4204157-.5413757.4995706-.7643041 1.2562998-.5802292 1.9695843.1349234.7337064-.1497188 1.4815216-.7383562 1.9398178-.5886373.4582962-1.3834174.5508884-2.0616438.2401822-.5089454-.238748-1.0948712-.2522789-1.6142951-.0372792-.5194239.2149996-.924381.6386762-1.1157049 1.1672792-1 2.74-.07 6.41 1.71 8.64-5-1.17-9.12-4.28-9.12-9.65-.0537534-2.2629616.1951154-4.5229598.74-6.72.7475094 1.755126 2.4930825 2.8738796 4.4 2.82 1.2492626.1091619 2.4580809-.4741409 3.15-1.52 1.47-2.35-.29-6.35-.89-7.58-1.19-2.46-2.39-6.05 1-8.9 1.78-1.56 4.12-3.32 5.6-5.43z"></path><path id="Shape" d="m1 7h4.15l-2.77 2.22c-.33024446.26493461-.45785844.70912706-.31859472 1.1089487.13926373.3998217.51522041.6686131.93859472.6710513.5 0 .37 0 4.35-3.2.16321908.4267215.38175295.83016865.65 1.2v3.81c-4.20189638 1.6401826-6.97662308 5.6793919-7 10.19v35c0 1.6568542 1.34314575 3 3 3h16c1.6568542 0 3-1.3431458 3-3v-35c.0056239-2.4138227-.7930971-4.7607254-2.27-6.67-1.2118161-1.60889-2.8505223-2.8457148-4.73-3.57v-3.76c.4371088-.5948673.7406863-1.27706385.89-2h3.18c1.6181943 0 2.93 1.31180568 2.93 2.93-.0016563 2.2640723 1.5420083 4.2369913 3.74 4.78l1.47.37c-.2226678.997277.3422326 2.0020235 1.31 2.33l6.64 2.26c.54002.1840682 1.1329451.1287446 1.6295904-.152051s.849728-.7603303.9704096-1.317949l.81-3.67c.1227045-.5555202.0030205-1.1370079-.3290947-1.5989154-.3321153-.4619074-.8452282-.7605165-1.4109053-.8210846l-7-.74c-1.0155955-.110531-1.9512467.562103-2.17 1.56v.2l-1.42-.36c-1.3136937-.3145776-2.2401303-1.4891668-2.24-2.84 0-2.72276382-2.2072362-4.93-4.93-4.93h-3.17c-.4731925-2.33032398-2.5221184-4.00501256-4.9-4.00501256-2.37788161 0-4.42680753 1.67468858-4.9 4.00501256h-6.1c-.55228474.00000001-.99999998.44771526-.99999998 1s.44771524.99999999.99999998 1zm29.64 6.36 7 .74-.81 3.67c-.1 0 .79.27-6.65-2.25zm-26.13 4.64h15c.9849937 1.4804002 1.5039638 3.2219105 1.49 5v30h-18.00000557l.00000557-30c-.0019793-1.7792872.52348579-3.5192378 1.51-5zm15.49 41h-16c-.55228475 0-1-.4477153-1-1v-3h18v3c0 .5522847-.4477153 1-1 1zm-2.35-43h-11.31c.71552123-.574843 1.51476439-1.0368527 2.37-1.37.77664546-.2949182 1.2901111-1.0392444 1.29-1.87v-2.18c1.2752523.5565657 2.7247477.5565657 4 0v2.18c.0014585.833286.5194179 1.5783507 1.3 1.87.8506117.3300212 1.643727.7923905 2.35 1.37zm-5.65-13c1.3767894.00640722 2.5724857.9491425 2.8999495 2.28643734s-.2973748 2.72582505-1.5154353 3.36763397c-1.2180605.64180891-2.7166298.37212468-3.6345142-.65407131-.79040776-.8836769-.98625083-2.14995933-.49972559-3.23112652.48652523-1.08116719 1.56414609-1.77439086 2.74972559-1.76887348z"></path><path id="Shape" d="m7 43h10c1.1045695 0 2-.8954305 2-2v-17c0-1.1045695-.8954305-2-2-2h-10c-1.1045695 0-2 .8954305-2 2v17c0 1.1045695.8954305 2 2 2zm0-19h10v17h-10z"></path><path id="Shape" d="m6 47h12c.5522847 0 1-.4477153 1-1s-.4477153-1-1-1h-12c-.55228475 0-1 .4477153-1 1s.44771525 1 1 1z"></path></g></svg>