<svg xmlns="http://www.w3.org/2000/svg" id="Layer_1" viewBox="0 0 512 512"><path d="m333.46 332.69c-3.17-3.03-3.26-8.08-.2-11.25 3.03-3.2 8.11-3.29 11.28-.23 3.26 3.12 8.22-1.76 4.93-5.05-.65-.62-1.53-1.02-2.49-1.02-17.32 0-26.05-21.06-13.8-33.31 7.11-7.11 18.37-7.68 26.16-1.28 3.4 2.81 3.91 7.82 1.11 11.23-2.81 3.4-7.82 3.88-11.23 1.11-3.29-2.72-7.91 2.01-4.71 5.22.62.65 1.5 1.05 2.47 1.05 17.32 0 26.08 21.03 13.8 33.31-7.54 7.5-19.67 7.59-27.32.22zm-30.84-45.27c0-4.42 3.57-7.99 7.99-7.99s7.99 3.57 7.99 7.99v42.75c0 4.42-3.57 7.99-7.99 7.99s-7.99-3.57-7.99-7.99zm91.33-11.31c22.56 0 33.82 32.54 18.79 52.16-10.09 13.21-27.5 13.21-37.59 0-15.02-19.62-3.77-52.16 18.8-52.16zm6.12 19.59c-6.63-8.67-15.73-.31-15.73 11.45s9.1 20.1 15.73 11.42c4.68-6.09 4.68-16.75 0-22.87zm-44.25-73.08c46.69 0 84.53 37.84 84.53 84.53s-37.84 84.53-84.53 84.53-84.53-37.84-84.53-84.53 37.85-84.53 84.53-84.53zm48.48 36.06c-26.76-26.76-70.16-26.76-96.92 0s-26.76 70.16 0 96.92 70.16 26.76 96.92 0c26.75-26.77 26.75-70.16 0-96.92zm-32.52-70.84 14.97 13.89c1.73 1.56 3.69 2.18 6.04 1.9l20.27-2.41c12.22-1.45 23.44 6.75 25.82 18.79l3.97 20.04c.45 2.27 1.67 3.94 3.69 5.07l17.83 9.98c10.74 6.01 15.02 19.19 9.86 30.33l-8.56 18.54c-.96 2.13-.96 4.22 0 6.32l8.56 18.54c5.16 11.17.88 24.32-9.86 30.36l-17.83 9.95c-1.28.74-2.3 1.7-2.92 2.92l35.91 75.12c2.92 6.09-2.64 12.76-9.1 11.17l-41.16-10.18-17.6 33.79c-2.98 5.67-11.65 6.09-14.6-.91l-25.43-54.51c-9.01 8.25-22.59 8.25-31.61 0l-25.43 54.51c-2.95 7-11.65 6.58-14.6.91l-17.6-33.79-40.68 10.06c-7.17 2.01-12.42-5.07-9.67-11l11.4-24.49h-187.11c-14.09 0-25.6-11.51-25.6-25.63v-351.23c0-14.12 11.51-25.63 25.6-25.63h281.82c14.09 0 25.6 11.51 25.6 25.63v137.08c2.89 1.05 5.61 2.67 8.02 4.88zm66.25 209.54c-3.57 10.4-13.92 16.98-24.97 15.68l-20.27-2.41c-4.2-.51-5.92 1.84-8.87 4.54l21.03 45.07 13.01-25h.03c1.64-3.2 5.33-4.96 8.99-4.05l30.9 7.63zm-110.3 17.8c-2.92-2.69-4.65-5.05-8.84-4.54l-20.3 2.41c-11.4 1.36-22-5.7-25.26-16.58l-19.73 42.38 31.1-7.65c3.63-.91 7.31.85 8.99 4.05l13.04 25zm-60.26-44.02c-.6-.79-1.36-1.47-2.32-2.01l-17.83-9.95c-10.77-6.04-15.02-19.19-9.89-30.36l8.56-18.54c.99-2.1.99-4.2 0-6.32l-8.56-18.54c-5.13-11.14-.88-24.32 9.89-30.33l17.83-9.98c2.01-1.13 3.2-2.81 3.66-5.07l4-20.04c2.38-12.05 13.61-20.24 25.8-18.79l20.3 2.41c2.35.28 4.31-.34 6.01-1.9l15-13.89c2.35-2.18 5.05-3.8 7.88-4.85v-137.12c0-5.27-4.34-9.61-9.61-9.61h-281.85c-5.27 0-9.61 4.34-9.61 9.61v351.24c0 5.27 4.34 9.64 9.61 9.64h194.57zm108.48-157.75-15-13.86c-2.86-2.66-7.4-2.66-10.26 0l-14.97 13.86c-5.22 4.82-11.74 6.94-18.71 6.12l-20.3-2.44c-3.91-.45-7.48 2.13-8.25 5.98l-3.97 20.04c-1.39 6.94-5.41 12.47-11.62 15.96l-17.83 9.95c-3.4 1.93-4.76 6.15-3.12 9.72l8.56 18.54c2.98 6.46 2.98 13.27 0 19.7l-8.56 18.54c-1.64 3.57-.28 7.8 3.12 9.72l17.83 9.98c6.26 3.49 10.26 9.04 11.62 15.96l3.97 20.01c.77 3.88 4.34 6.43 8.25 5.98l20.3-2.41c6.97-.82 13.49 1.3 18.71 6.12l14.97 13.86c2.86 2.64 7.4 2.64 10.26 0l15-13.86c5.19-4.82 11.71-6.94 18.71-6.12l20.27 2.41c3.91.45 7.51-2.1 8.28-5.98l3.97-20.01c1.36-6.97 5.41-12.5 11.59-15.96l17.83-9.98c3.43-1.93 4.79-6.15 3.15-9.72l-8.56-18.54c-2.98-6.43-2.98-13.24 0-19.7l8.56-18.54c1.64-3.57.28-7.8-3.15-9.72l-17.83-9.95c-6.18-3.49-10.23-9.01-11.59-15.96l-3.97-20.04c-.77-3.85-4.37-6.43-8.28-5.98l-20.27 2.44c-7 .82-13.52-1.3-18.71-6.12zm-142.36-117.84c-4.42 0-7.99-3.6-7.99-8.02 0-4.39 3.57-7.99 7.99-7.99h63.24c4.42 0 8.02 3.6 8.02 7.99 0 4.42-3.6 8.02-8.02 8.02zm0 36.6c-4.42 0-7.99-3.57-7.99-7.99s3.57-7.99 7.99-7.99h63.24c4.42 0 8.02 3.57 8.02 7.99s-3.6 7.99-8.02 7.99zm-160.72-65.65h130.48c4.42 0 7.99 3.57 7.99 7.99v62.7c0 4.42-3.57 7.99-7.99 7.99h-130.48c-4.42 0-8.02-3.57-8.02-7.99v-62.7c0-4.42 3.6-7.99 8.02-7.99zm122.48 15.98h-114.49v46.72h114.49zm-38.38 276.35c-4.42 0-7.99-3.6-7.99-8.02 0-4.39 3.57-7.99 7.99-7.99h58.76c4.42 0 8.02 3.6 8.02 7.99 0 4.42-3.6 8.02-8.02 8.02zm0-28.57c-4.42 0-7.99-3.57-7.99-7.99s3.57-8.02 7.99-8.02h53.01c4.42 0 7.99 3.6 7.99 8.02s-3.57 7.99-7.99 7.99zm0-76.05c-4.42 0-7.99-3.57-7.99-7.99s3.57-8.02 7.99-8.02h59.84c4.42 0 8.02 3.6 8.02 8.02s-3.6 7.99-8.02 7.99zm0-28.58c-4.42 0-7.99-3.57-7.99-7.99s3.57-7.99 7.99-7.99h62.48c4.39 0 7.99 3.57 7.99 7.99s-3.6 7.99-7.99 7.99zm-84.1 75.66h56.27c4.42 0 8.02 3.57 8.02 7.99v54.51c0 4.42-3.6 7.99-8.02 7.99h-56.27c-4.42 0-8.02-3.57-8.02-7.99v-54.51c0-4.42 3.6-7.99 8.02-7.99zm48.27 15.99h-40.28v38.52h40.28zm-48.27-120.22h56.27c4.42 0 8.02 3.57 8.02 7.99v54.51c0 4.42-3.6 7.99-8.02 7.99h-56.27c-4.42 0-8.02-3.57-8.02-7.99v-54.51c0-4.42 3.6-7.99 8.02-7.99zm48.27 15.99h-40.28v38.52h40.28z"></path></svg>