<svg xmlns="http://www.w3.org/2000/svg" xmlns:xlink="http://www.w3.org/1999/xlink" xmlns:xodm="http://www.corel.com/coreldraw/odm/2003" xml:space="preserve" width="985.261mm" height="985.261mm" style="shape-rendering:geometricPrecision; text-rendering:geometricPrecision; image-rendering:optimizeQuality; fill-rule:evenodd; clip-rule:evenodd" viewBox="0 0 98526.1 98526.1"> <defs> <style type="text/css"> .str0 {stroke:#064887;stroke-width:881.94;stroke-linecap:round;stroke-linejoin:round;stroke-miterlimit:22.9256} .fil0 {fill:none} .fil1 {fill:#064887} .fil2 {fill:#064887;fill-rule:nonzero} </style> </defs> <g id="Layer_x0020_1"> <metadata id="CorelCorpID_0Corel-Layer"></metadata> <path class="fil0 str0" d="M49259.32 151.79c27124.39,0 49113.06,21988.67 49113.06,49113.06 0,27124.39 -21988.67,49113.06 -49113.06,49113.06 -27124.39,0 -49113.06,-21988.67 -49113.06,-49113.06 0,-27124.39 21988.67,-49113.06 49113.06,-49113.06zm533.93 3001.53c25238.39,0 45698.17,20459.77 45698.17,45698.17 0,25238.39 -20459.78,45698.16 -45698.17,45698.16 -25238.39,0 -45698.17,-20459.77 -45698.17,-45698.16 0,-25238.4 20459.78,-45698.17 45698.17,-45698.17z"></path> <path class="fil1" d="M49793.25 3153.32c25238.39,0 45698.17,20459.77 45698.17,45698.17 0,25238.39 -20459.78,45698.16 -45698.17,45698.16 -25238.39,0 -45698.17,-20459.77 -45698.17,-45698.16 0,-25238.4 20459.78,-45698.17 45698.17,-45698.17zm37514.62 48283.83l-8.27 1363.33c0.23,56.13 -8.88,73 -8.95,126.51 -0.07,45.21 0.14,90.65 0.4,135.87 0.52,90.95 -17.73,281.11 -17.03,397.84 0.33,56.07 -6.16,83.17 -8.52,126.94 -2.58,47.69 3.58,93.41 -3.54,140.4l-64.66 1027.54c-19.1,249.05 -52.26,510.7 -67.23,754.04 -16.49,268 -102.6,973.17 -139.04,1232.56 -110.88,789.29 -227.67,1590.96 -383.77,2367.89 -31.44,156.48 -60.55,301.16 -91.7,458.64 -118.42,598.64 -265.89,1189.54 -413.35,1779.51 -36.87,147.5 -72.8,296.84 -114.13,436.21 -20.8,70.15 -40.35,145.66 -58.53,212.39 -98.42,361.13 -203.74,702.56 -309.6,1062.01l-264.69 827.51c-46.92,140.74 -92.24,276.23 -137.58,412.75l-363.86 1007.74c-26.08,70.04 -52.24,135.91 -76.5,202.9 -46.59,128.68 -263.22,702.18 -317.47,783.19 -231.56,345.79 -784.18,207.85 -784.18,-233.84 0,-130.21 83.46,-284.85 130.62,-402.78 102.42,-256.06 207.33,-508.49 295.83,-770.97l550.5 -1583.1c135.23,-406.69 248.86,-814.88 372.34,-1227.85 222.02,-742.5 472.01,-1792.63 632.52,-2567.89 215.56,-1041.15 396.59,-2134.75 530.33,-3203.46 33.61,-268.56 97.53,-805.98 112.78,-1081.03l24.59 -246.34c3.66,-48.28 7.94,-83.13 9.02,-126.44l84.33 -1380.41c0.61,-49.71 9.26,-69.54 8.92,-126.55 -1.5,-250.92 26.24,-520.55 25.31,-770.55 -0.33,-90.3 -0.02,-180.66 -0.02,-270.96l8.47 -762.01c0.2,-86.6 -8.48,-145.96 -8.47,-237.06 0,-81.84 -0.02,-163.69 0,-245.53 0.02,-90.85 -8.58,-148.46 -8.47,-237.06 0.25,-205.56 -16.38,-395.83 -16.64,-592.96 -0.07,-52.36 -8.99,-65.61 -9.05,-117.96 -0.1,-91 -7.88,-148.8 -7.89,-237.64l-85.51 -1260.69c-19.69,-259.96 -53.52,-520.66 -75.88,-779.25 -6.19,-71.64 -20.11,-149.47 -24.87,-220.67 -5,-74.97 -16.68,-149.07 -24.98,-220.55 -58.99,-508.29 -124.83,-1009.37 -208.76,-1509.98l-142.66 -839.46c-73.83,-414.12 -157.55,-814.57 -244.08,-1220.66 -85.4,-400.77 -180.14,-798.85 -278.99,-1194.21 -31.87,-127.47 -68.1,-258.62 -101.7,-389.37 -196,-762.77 -421.07,-1520.99 -670.25,-2267.68 -138.87,-416.12 -353.39,-1051.57 -514.49,-1449.77l-632.58 -1568.76c-119.24,-288.88 -325.55,-758.87 -455.68,-1017.52 -14.92,-29.66 -23.02,-54.76 -36.46,-82.06l-688.75 -1394.06c-55.96,-112.1 -184.75,-364.94 -254.75,-481.85l-86.81 -158.72c-28.2,-56.99 -59.97,-104.8 -87.52,-158.01 -28.63,-55.29 -56.4,-102.7 -87.26,-158.28 -232,-417.73 -475.5,-825.65 -719.7,-1236.09l-959.08 -1496.26c-258.98,-388.47 -526.19,-776.19 -806.51,-1149.3l-632.6 -840.59c-99.91,-133.73 -164.48,-191.21 -164.48,-385.85 0,-197.81 180.03,-397.93 381,-397.93 104.4,0 180.9,8.3 268.48,61.71 54.42,33.19 87.17,70.05 125.88,119.66l1060.31 1428.88 408.02 591.05c136.72,192.52 264.88,397.49 396.22,594.38 349.96,524.64 675.76,1067.33 995.86,1611.88 174.37,296.63 435.27,741.47 583.47,1033.66l129.68 242.86c124.67,246.02 260.68,487.13 383.94,733.65 72.93,145.86 191.54,360.42 250.43,503.1l319.77 670.83c305.54,635.51 638.97,1446.72 899.38,2097.82l274.56 716.04c100.89,254.4 240.12,657.05 327,917.6 188.86,566.4 374.05,1119.55 540.26,1703.41 37.42,131.48 70.91,249.52 109.34,381.72 113.97,392.07 213.02,788.45 311.95,1186.66 197.39,794.51 387.61,1643.31 523.37,2465.36l294.73 1940.47c9.62,78.54 20.6,149.57 27.18,226.82 12.51,146.88 40.67,296.47 50.86,448.67 4.68,69.85 18.54,151.47 24.37,221.16l51.69 566.38c1.55,31.31 5.54,78.92 9.61,117.4 31.64,299.6 50.18,617.42 66.41,932.65 8.13,158.08 23.19,317.27 25.09,474.44l23.42 476.11c10.55,76.92 -5.16,164.4 3.55,241.98 8.38,74.61 7.26,159.78 7.23,246.77 -0.02,89.43 8.31,146.66 8.47,232.94l0 4.13 0 3.97c-0.09,72.76 -0.02,145.51 0,218.28l0 3.97 0 3.97 0 3.97 0 3.96 0 3.97 0 3.97 0 3.97 0 3.97zm-75467.48 -675.49l8.27 1363.33c-0.23,56.13 8.88,73 8.95,126.51 0.07,45.21 -0.14,90.65 -0.4,135.87 -0.52,90.95 17.73,281.11 17.03,397.84 -0.33,56.07 6.16,83.17 8.52,126.94 2.58,47.69 -3.58,93.41 3.54,140.4l64.66 1027.54c19.1,249.05 52.26,510.7 67.23,754.04 16.49,268 102.6,973.17 139.04,1232.56 110.88,789.29 227.67,1590.96 383.77,2367.89 31.44,156.48 60.55,301.16 91.7,458.64 118.42,598.64 265.89,1189.54 413.35,1779.51 36.87,147.5 72.8,296.84 114.13,436.21 20.8,70.15 40.35,145.66 58.53,212.39 98.42,361.13 203.74,702.56 309.6,1062.01l264.69 827.51c46.92,140.74 92.24,276.23 137.58,412.75l363.86 1007.74c26.08,70.04 52.24,135.91 76.5,202.9 46.59,128.68 263.22,702.18 317.47,783.19 231.56,345.79 784.18,207.85 784.18,-233.84 0,-130.21 -83.46,-284.85 -130.62,-402.78 -102.42,-256.06 -207.33,-508.49 -295.83,-770.97l-550.5 -1583.1c-135.23,-406.69 -248.86,-814.88 -372.34,-1227.85 -222.02,-742.5 -472.01,-1792.63 -632.52,-2567.89 -215.56,-1041.15 -396.59,-2134.75 -530.33,-3203.46 -33.61,-268.56 -97.53,-805.98 -112.78,-1081.03l-24.59 -246.34c-3.66,-48.28 -7.94,-83.13 -9.02,-126.44l-84.33 -1380.41c-0.61,-49.71 -9.26,-69.54 -8.92,-126.55 1.5,-250.92 -26.24,-520.55 -25.31,-770.55 0.33,-90.3 0.02,-180.66 0.02,-270.96l-8.47 -762.01c-0.2,-86.6 8.48,-145.96 8.47,-237.06 0,-81.84 0.02,-163.69 0,-245.53 -0.02,-90.85 8.58,-148.46 8.47,-237.06 -0.25,-205.56 16.38,-395.83 16.64,-592.96 0.07,-52.36 8.99,-65.61 9.05,-117.96 0.1,-91 7.88,-148.8 7.89,-237.64l85.51 -1260.69c19.69,-259.96 53.52,-520.66 75.88,-779.25 6.19,-71.64 20.11,-149.47 24.87,-220.67 5,-74.97 16.68,-149.07 24.98,-220.55 58.99,-508.29 124.83,-1009.37 208.76,-1509.98l142.66 -839.46c73.83,-414.12 157.55,-814.57 244.08,-1220.66 85.4,-400.77 180.14,-798.85 278.99,-1194.21 31.87,-127.47 68.1,-258.62 101.7,-389.37 196,-762.77 421.07,-1520.99 670.25,-2267.68 138.87,-416.12 353.39,-1051.57 514.49,-1449.77l632.58 -1568.76c119.24,-288.88 325.55,-758.87 455.68,-1017.52 14.92,-29.66 23.02,-54.76 36.46,-82.06l688.75 -1394.06c55.96,-112.1 184.75,-364.94 254.75,-481.85l86.81 -158.72c28.2,-56.99 59.97,-104.8 87.52,-158.01 28.63,-55.29 56.4,-102.7 87.26,-158.28 232,-417.73 475.5,-825.65 719.7,-1236.09l959.08 -1496.26c258.98,-388.47 526.19,-776.19 806.51,-1149.3l632.6 -840.59c99.91,-133.73 164.48,-191.21 164.48,-385.85 0,-197.81 -180.03,-397.93 -381,-397.93 -104.4,0 -180.9,8.3 -268.48,61.71 -54.42,33.19 -87.17,70.05 -125.88,119.66l-1060.31 1428.88 -408.02 591.05c-136.72,192.52 -264.88,397.49 -396.22,594.38 -349.96,524.64 -675.76,1067.33 -995.86,1611.88 -174.37,296.63 -435.27,741.47 -583.47,1033.66l-129.68 242.86c-124.67,246.02 -260.68,487.13 -383.94,733.65 -72.93,145.86 -191.54,360.42 -250.43,503.1l-319.77 670.83c-305.54,635.51 -638.97,1446.72 -899.38,2097.82l-274.56 716.04c-100.89,254.4 -240.12,657.05 -327,917.6 -188.86,566.4 -374.05,1119.55 -540.26,1703.41 -37.42,131.48 -70.91,249.52 -109.34,381.72 -113.97,392.07 -213.02,788.45 -311.95,1186.66 -197.39,794.51 -387.61,1643.31 -523.37,2465.36l-294.73 1940.47c-9.62,78.54 -20.6,149.57 -27.18,226.82 -12.51,146.88 -40.67,296.47 -50.86,448.67 -4.68,69.85 -18.54,151.47 -24.37,221.16l-51.69 566.38c-1.55,31.31 -5.54,78.92 -9.61,117.4 -31.64,299.6 -50.18,617.42 -66.41,932.65 -8.13,158.08 -23.19,317.27 -25.09,474.44l-23.42 476.11c-10.55,76.92 5.16,164.4 -3.55,241.98 -8.38,74.61 -7.26,159.78 -7.23,246.77 0.02,89.43 -8.31,146.66 -8.47,232.94l0 4.13 0 3.97c0.09,72.76 0.02,145.51 0,218.28l0 3.97 0 3.97 0 3.97 0 3.96 0 3.97 0 3.97 0 3.97 0 3.97zm7757.14 23130.25l674.07 1453.05c-798.34,401.62 -1536.17,537.99 -2213.54,411.67 -676.03,-127.54 -1295.05,-502.44 -1856.9,-1127.32 -695.93,-773.95 -1003.21,-1647.34 -923.1,-2621.47 81.34,-972.79 579.55,-1871.79 1497.18,-2696.91 969.17,-871.41 1948.27,-1298.3 2934.77,-1280.77 986.48,17.53 1847.17,434.97 2580.89,1250.95 641.08,712.97 950.05,1481.88 928.24,2305.51 -10.49,489.93 -190.41,1009.57 -538.59,1562.88l-1322.23 -914.34c238.76,-339.69 348.13,-697.89 326.75,-1073.32 -22.59,-376.82 -174.72,-720.49 -455.04,-1032.25 -388.79,-432.38 -858.98,-644.51 -1410.69,-633.79 -551.58,8.15 -1173.76,324.91 -1867.75,948.92 -734.66,660.58 -1139.79,1265.08 -1213.88,1809.72 -74.22,547.21 79.47,1031.64 460.93,1455.9 281.55,313.11 623.04,493.86 1024.61,539.73 401.57,45.84 859.56,-71.83 1374.28,-358.16zm3241.47 1908.99c457.28,-654.46 940.1,-1135.43 1446.96,-1443.95 373.59,-225.95 779.5,-380.41 1213.68,-463.96 434.18,-83.57 845.31,-83.17 1234.36,-0.33 518.45,110.94 1039.66,348.39 1562.64,713.81 947.34,661.91 1497.73,1484.55 1656.73,2469.57 156.45,985.43 -130.73,2001.15 -862.6,3048.59 -725.6,1038.47 -1575.96,1654.01 -2548.55,1846.14 -973.63,193.64 -1932.83,-40.76 -2875.68,-699.53 -954.81,-667.13 -1511.76,-1489.92 -1666.87,-2467.75 -156.15,-976.34 123.13,-1977.57 839.33,-3002.59zm1366.11 890.03c-508.44,727.68 -724.85,1397.02 -651.73,2008.48 74.12,609.95 369.93,1096.81 886.94,1458.06 518.48,362.27 1073.34,472.01 1666.53,332.75 592.73,-141.77 1149.05,-584.74 1670.01,-1330.36 514.71,-736.62 737.53,-1399.26 665.94,-1987.42 -69.05,-588.59 -371.56,-1069.03 -907.98,-1443.84 -534.92,-373.76 -1095.18,-491.71 -1678.19,-354.25 -584.08,138.94 -1134.74,576.95 -1651.52,1316.58zm5349.11 8226.59l2772.87 -7323.48 2221.24 841.03 -578.55 5491.84 3188.49 -4503.65 2226.35 842.96 -2772.87 7323.49 -1370.61 -518.96 2177.82 -5767.29 -3626.82 5218.66 -1425.16 -539.61 745.88 -6309.45 -2188.07 5763.4 -1370.57 -518.94zm10416.34 3594.42l1256.47 -7729.37 2502.71 406.83c948.18,154.14 1559.16,292.24 1834.47,416.4 423.6,188.9 753.27,501.04 988.78,938.23 235.5,437.17 303.21,963.45 203.19,1578.77 -77.22,474.99 -228.22,858.56 -451.79,1154.64 -225.38,295.78 -484.32,514.07 -778.92,656.4 -294.32,140.52 -584.08,219 -867.22,233.9 -384.42,13.23 -928.52,-36.43 -1633.82,-151.09l-1014.75 -164.94 -473.83 2914.69 -1565.29 -254.46zm2609.46 -6168.69l-358 2202.22 851.01 138.35c613.55,99.72 1028.7,124.75 1248.75,77.41 220.09,-47.33 402.48,-146.96 547.8,-302.46 145.03,-153.69 236.87,-343.77 274.31,-574.06 45.91,-282.48 0.89,-528.03 -133.01,-738.17 -135.69,-210.43 -323.9,-359.21 -569.96,-447.24 -179.77,-64.31 -549.27,-142.84 -1110.64,-234.1l-750.26 -121.95zm6544.98 7292.89l-275.58 -7760.34 1584.86 -56.28 228.62 6437.81 3923.87 -139.34 46.98 1322.53 -5508.75 195.62zm8433.66 -664.44l-1404.35 -7703.9 1560.15 -284.4 1404.35 7703.89 -1560.15 284.41zm11563.98 -3264.3l-1619.27 543.3 -1208.19 -1475.02 -2977.61 999.01 -49.9 1897.12 -1589.89 533.43 391.67 -8391.25 1588.17 -532.85 5465.02 6426.26zm-3735.76 -2022.85l-1953.6 -2401.61 -80.42 3084.04 2034.02 -682.43zm6174.95 723.98l-4178.68 -6622.76 1298.04 -818.99 5525.92 2718.56 -2800.37 -4438.28 1239.47 -782.04 4178.67 6622.74 -1339.66 845.27 -5430.82 -2660.05 2746.88 4353.51 -1239.45 782.04zm9364.85 -6717.34l-4470.8 -4728.56 -1684.79 1592.96 -909.18 -961.6 4513.97 -4267.92 909.19 961.59 -1676.85 1585.46 4470.81 4728.54 -1152.35 1089.53zm-56345.69 -50211.42l-6359.52 -5938.25 1202.57 -1287.89 6359.53 5938.26 -1202.58 1287.88zm262.55 -4451.59l1247.52 -1186.84c433.6,388.82 854.18,592.73 1267.34,612.42 413.21,19.7 829.33,-134.84 1249.64,-462.07 444.29,-345.9 706.49,-701.47 785.01,-1065.48 78.52,-363.99 20.29,-672.88 -176.3,-925.39 -126.9,-163 -281.83,-263.12 -465.71,-304.79 -182.62,-40.06 -425.99,-9.75 -727.21,91.29 -206.18,68.13 -650.91,255.22 -1338.22,559.3 -884.27,390.68 -1580.34,568.1 -2089.45,530.69 -715.19,-51.55 -1284.14,-350.41 -1708.4,-895.38 -272.48,-350 -429.7,-756.36 -470.76,-1214.64 -39.47,-459.53 64.59,-912.71 312.54,-1362.43 247.93,-449.71 633.21,-877.99 1160.61,-1288.58 858.2,-668.14 1653.49,-981.86 2383.96,-937.08 732.05,43.52 1354.65,375.07 1873.44,995.31l-1353.05 1130.38c-335.32,-308.73 -659.42,-464.55 -973.49,-469.01 -314.05,-4.5 -665.88,143.64 -1052.63,444.74 -399.54,311.04 -648.07,638.01 -744.02,979.66 -62.06,220.31 -24.86,419.75 114.5,598.76 126.92,163 303.89,248.55 530.9,256.59 289.9,13.03 832.86,-163.26 1630.1,-527.26 795.98,-365.59 1422.42,-586.32 1875.52,-667 455.96,-80.35 888.87,-45.19 1301.24,108.63 412.35,153.82 787.13,447.28 1124.3,880.38 306.08,393.15 484.82,846.92 533.38,1360.95 48.55,514.09 -60.82,1009.92 -330.95,1487.17 -268.9,478.85 -702.83,950.13 -1298.93,1414.22 -867.79,675.59 -1689.73,994.66 -2467.1,955.6 -776.11,-37.48 -1506.72,-405.55 -2193.78,-1100.14zm6647.95 -6644.66c-347.46,-816.23 -516.43,-1554.36 -508.73,-2213.62 7.01,-485.05 100.45,-958.47 277.34,-1416.81 176.9,-458.32 419.3,-845.48 726.43,-1163.35 409.77,-423.19 940.39,-774.54 1592.63,-1052.21 1181.46,-502.98 2280.69,-537.31 3302.47,-107.2 1020.72,432.75 1808.73,1301.37 2364.86,2607.71 551.38,1295.12 630.74,2458.83 239.2,3488.4 -390.78,1031.46 -1176.35,1797.34 -2352.23,2297.94 -1190.8,506.94 -2294,547.39 -3306.76,117.83 -1011.94,-427.68 -1790.98,-1280.31 -2335.21,-2558.69zm1642.99 -763.3c386.36,907.54 889.67,1505.53 1508.89,1796.64 618.41,289.25 1251.34,297.14 1896.12,22.65 646.64,-275.28 1076.71,-733.53 1294.74,-1374.46 215.36,-642.02 125.49,-1427.02 -270.39,-2356.91 -391.11,-918.71 -884.33,-1518.81 -1480.69,-1797.64 -595.3,-281.47 -1226.11,-279.26 -1895.12,5.56 -667.14,284.02 -1108.11,742.49 -1321.86,1372.8 -212.95,632.18 -124.38,1408.94 268.31,2331.36zm16491.39 784.81l-1664.86 0.62 -2.39 -6298.87c-607.37,571.39 -1324.2,994.97 -2150.45,1268.7l-0.57 -1519.02c435.38,-141.94 907.18,-411.49 1415.42,-810.68 510.24,-397.18 858.42,-861.11 1048.6,-1389.79l1350.93 -0.51 3.32 8749.55zm6049.18 580.24l-1645.88 -250.63 948.22 -6227.08c-686.65,473.16 -1459.17,783.7 -2317.27,929.62l228.68 -1501.72c451.82,-74.6 958.9,-269.86 1521.54,-587.79 564.35,-315.6 978.54,-721.7 1246.35,-1215.62l1335.53 203.38 -1317.17 8649.84zm8116.53 -6753.63c791,290.26 1304.96,800.34 1543.85,1530.93 284.88,863.95 142.89,2073.93 -426.49,3625.46 -568.68,1549.62 -1245.67,2565.43 -2028.34,3046.26 -648.16,396.42 -1366.77,449.84 -2157.75,159.57 -794.78,-291.66 -1323.2,-832.93 -1585.27,-1623.8 -262.07,-790.87 -104.24,-1973.47 472.1,-3543.99 565.89,-1542.03 1241.49,-2554.03 2024.16,-3034.86 648.17,-396.42 1366.79,-449.84 2157.74,-159.57zm-477.26 1300.53c-186.32,-68.38 -375.97,-68.95 -565.14,-0.28 -190.37,66.05 -383.98,240.96 -578.97,525.37 -255.09,365.91 -559.54,1030.86 -911.91,1991.07 -353.07,962.08 -547.64,1639.31 -584.47,2033.55 -36.8,394.25 -4.94,677.78 95.61,850.6 100.55,172.81 244.33,292.48 430.68,360.85 186.32,68.38 375.97,68.93 567.05,0.97 188.46,-66.74 382.08,-241.65 577.07,-526.08 253.7,-362.11 557.44,-1025.16 910.5,-1987.25 352.36,-960.19 546.96,-1637.4 583.76,-2031.65 36.81,-394.25 5.65,-679.69 -94.9,-852.5 -99.84,-174.73 -242.94,-296.28 -429.28,-364.65zm9328.4 5817.69l-1470.77 -693.45c140.96,-303.24 181.09,-566.14 122.19,-787.65 -58.94,-221.51 -200.61,-401.14 -426.73,-539.91 -300.37,-184.32 -636.74,-205.41 -1009.16,-63.24 -372.41,142.16 -846.16,623.73 -1423.01,1443.64 610.24,-200.57 1176.9,-140.37 1703.39,182.72 592.11,363.39 962.55,902.03 1107.92,1613.85 144.31,713.53 -3.17,1426.24 -442.8,2142.62 -466.12,759.52 -1063.81,1233.96 -1790.97,1419.82 -727.15,185.85 -1439.43,64.78 -2136.82,-363.21 -747.45,-458.69 -1184.69,-1128.62 -1308.23,-2007.64 -123.55,-879.04 220.6,-1981.93 1036.32,-3311.14 835.84,-1361.96 1690.66,-2189.52 2562.69,-2483.7 872.06,-294.16 1708.9,-194.07 2511.58,298.52 562.75,345.37 931.38,790.2 1105.86,1334.51 175.54,542.61 127.45,1147.59 -141.46,1814.26zm-5125.88 1126.97c-283.91,462.62 -396.17,885.63 -338.51,1267.96 57.65,382.35 221.98,656.65 496.45,825.1 262.39,161.02 545.18,191.99 847.33,94.62 301.47,-100.15 597.14,-384.46 885.29,-853.99 296.63,-483.35 418.84,-895.47 369.46,-1237.1 -52.17,-340.92 -218.06,-597.19 -501.17,-770.94 -274.47,-168.43 -569.73,-202.33 -892.04,-103.07 -319.51,98.59 -609.38,357.94 -866.81,777.42zm4905.9 7453.86l1228.45 -1246.24 -2527.08 -2491.02 1019.44 -1034.21 6565.8 -1300.36 998.15 983.9 -3881.56 3937.76 770.24 759.25 -1023.7 1038.53 -770.24 -759.25 -1228.45 1246.24 -1151.05 -1134.6zm2252.17 -2284.79l2085.78 -2115.99 -3502.23 719.79 1416.45 1396.2zm-24881.66 -2240.29c15423.2,0 27926.19,12502.98 27926.19,27926.19 0,15423.2 -12502.99,27926.19 -27926.19,27926.19 -15423.2,0 -27926.19,-12502.99 -27926.19,-27926.19 0,-15423.21 12502.99,-27926.19 27926.19,-27926.19z"></path> <path class="fil0" d="M11693.02 69771.54c4400.16,6707.19 10488.31,12137.96 17652.56,15746.48 22540.6,11353.31 50017.07,2284.21 61370.39,-20256.39"></path> <path class="fil2" d="M28638.62 52960.45l0 196.14 -3980.54 0 0 -196.14 251.91 0c221.13,0 399.96,-40.39 534.58,-119.22 98.07,-53.84 173.06,-144.23 224.99,-273.06 40.38,-90.39 61.53,-328.83 61.53,-715.35l0 -5042.03c0,-394.21 -21.15,-640.35 -61.53,-738.42 -42.31,-98.07 -125,-184.61 -250,-257.69 -124.99,-74.99 -294.21,-111.53 -509.57,-111.53l-251.91 0 0 -196.15 3980.54 0 0 196.15 -251.91 0c-219.22,0 -396.12,40.38 -530.74,119.23 -96.14,53.84 -173.06,144.22 -228.83,273.07 -40.37,90.37 -61.52,328.81 -61.52,715.34l0 5042.03c0,394.2 21.15,640.34 63.45,738.41 44.23,98.09 126.92,184.62 251.91,257.68 124.99,75.01 294.21,111.54 505.73,111.54l251.91 0zm5701.61 -7626.51l57.7 2549.86 -230.76 0c-109.61,-638.43 -376.9,-1151.86 -803.8,-1540.3 -428.82,-388.44 -890.34,-582.66 -1386.46,-582.66 -384.61,0 -688.43,101.92 -911.49,307.67 -224.99,203.84 -336.53,440.37 -336.53,705.73 0,169.22 40.39,319.22 119.24,451.91 107.68,174.99 282.67,349.98 524.95,523.05 176.92,123.06 584.59,344.21 1223.03,659.57 896.1,438.44 1499.91,853.81 1811.43,1244.16 309.59,390.37 463.43,836.5 463.43,1340.32 0,638.42 -249.98,1186.48 -748.03,1646.07 -498.05,459.59 -1130.71,690.33 -1897.96,690.33 -240.38,0 -469.22,-24.99 -682.66,-73.06 -215.38,-48.09 -484.6,-140.39 -807.66,-276.92 -180.76,-74.99 -328.82,-111.52 -446.13,-111.52 -98.07,0 -199.98,38.46 -309.59,113.45 -109.61,76.92 -198.07,192.3 -265.38,348.05l-196.14 0 0 -2884.45 196.14 0c165.38,809.57 484.6,1428.77 955.72,1853.75 473.06,424.97 980.72,638.42 1526.85,638.42 421.13,0 757.64,-115.38 1007.62,-344.21 250,-228.83 375,-494.2 375,-799.95 0,-178.85 -48.08,-353.84 -144.23,-523.06 -96.15,-169.22 -240.38,-328.81 -436.52,-482.65 -196.14,-151.93 -542.28,-349.99 -1038.4,-594.22 -696.11,-340.35 -1196.09,-632.65 -1499.91,-873.02 -301.92,-240.37 -534.59,-509.58 -698.06,-805.72 -163.45,-298.07 -244.21,-624.97 -244.21,-980.72 0,-609.58 223.06,-1128.78 671.12,-1557.61 446.14,-428.82 1009.57,-642.27 1690.29,-642.27 248.08,0 488.45,28.85 721.12,88.46 176.92,46.14 392.28,128.83 646.12,249.98 253.83,121.15 430.75,180.76 532.66,180.76 98.07,0 174.99,-28.84 230.76,-88.46 55.77,-59.61 109.61,-203.84 157.68,-430.74l173.06 0zm5443.93 80.76c1217.25,-44.23 2207.57,309.6 2969.08,1063.4 761.5,755.73 1142.24,1698 1142.24,2832.55 0,967.25 -284.6,1819.13 -851.87,2555.62 -751.9,974.96 -1813.36,1463.38 -3186.37,1463.38 -1376.85,0 -2440.25,-465.34 -3192.14,-1396.07 -594.2,-736.49 -892.25,-1607.61 -892.25,-2617.16 0,-1134.55 386.51,-2078.74 1159.54,-2834.46 773.04,-757.66 1722.99,-1111.49 2851.77,-1067.26zm67.31 357.68c-701.88,0 -1234.55,355.76 -1601.84,1069.17 -298.06,584.59 -446.13,1424.92 -446.13,2521.01 0,1301.86 230.77,2265.27 690.36,2888.32 321.13,434.58 769.18,651.87 1346.07,651.87 388.44,0 713.43,-94.21 973.02,-280.74 330.76,-240.37 590.36,-624.97 774.96,-1151.86 184.62,-526.9 276.92,-1215.33 276.92,-2061.43 0,-1009.56 -94.23,-1765.29 -282.69,-2265.26 -188.44,-501.89 -428.81,-855.73 -721.12,-1061.48 -292.28,-205.76 -628.81,-309.6 -1009.55,-309.6zm11103.23 -415.36l0 6253.5c0,473.05 21.17,774.96 61.54,903.81 42.3,130.76 128.85,238.44 261.52,321.13 130.76,82.69 342.3,124.99 632.67,124.99l175 0 0 196.14 -4026.71 0 0 -196.14 203.82 0c326.91,0 559.6,-38.46 698.06,-113.45 140.37,-75.01 232.67,-178.85 282.67,-311.52 48.07,-132.69 73.06,-440.37 73.06,-924.96l0 -3969c0,-355.76 -17.29,-578.84 -49.98,-669.21 -34.62,-88.46 -98.09,-163.45 -190.39,-224.99 -92.3,-63.45 -198.06,-94.23 -319.21,-94.23 -192.3,0 -424.97,59.63 -699.96,180.76l-101.91 -196.14 2813.31 -1280.69 186.51 0zm5132.42 0l0 6253.5c0,473.05 21.17,774.96 61.54,903.81 42.3,130.76 128.85,238.44 261.52,321.13 130.77,82.69 342.3,124.99 632.68,124.99l174.99 0 0 196.14 -4026.71 0 0 -196.14 203.82 0c326.91,0 559.6,-38.46 698.06,-113.45 140.37,-75.01 232.67,-178.85 282.67,-311.52 48.07,-132.69 73.06,-440.37 73.06,-924.96l0 -3969c0,-355.76 -17.29,-578.84 -49.98,-669.21 -34.62,-88.46 -98.09,-163.45 -190.39,-224.99 -92.3,-63.45 -198.05,-94.23 -319.2,-94.23 -192.3,0 -424.98,59.63 -699.97,180.76l-101.91 -196.14 2813.31 -1280.69 186.51 0zm7349.61 3980.55c0,763.41 -107.68,1474.92 -321.13,2136.42 -126.92,405.75 -299.99,738.43 -515.37,998.02 -215.36,259.61 -459.59,465.36 -734.56,617.27 -273.06,151.93 -573.05,228.83 -894.2,228.83 -369.2,0 -699.94,-94.21 -998.01,-282.67 -296.15,-186.53 -559.58,-455.73 -788.43,-805.71 -163.45,-255.77 -309.59,-596.13 -432.65,-1021.1 -161.54,-574.97 -242.3,-1169.17 -242.3,-1780.67 0,-830.73 117.29,-1594.16 349.98,-2288.36 190.37,-576.88 480.74,-1017.23 871.1,-1322.99 390.37,-305.75 803.8,-459.59 1240.31,-459.59 442.29,0 855.74,151.91 1240.32,453.82 384.6,301.9 667.28,709.58 848.04,1221.08 251.91,701.9 376.9,1471.08 376.9,2305.65zm-1730.67 -11.54c0,-1336.46 -7.7,-2115.28 -23.08,-2338.34 -36.53,-521.11 -126.92,-874.95 -269.22,-1057.62 -94.22,-121.16 -246.13,-180.77 -457.67,-180.77 -161.52,0 -288.44,44.23 -382.67,134.61 -140.37,132.69 -232.67,363.45 -282.67,696.12 -48.07,332.67 -73.08,1492.23 -73.08,3478.65 0,1080.71 38.46,1805.68 113.47,2172.96 55.75,267.29 136.53,446.14 242.28,536.51 103.84,90.39 244.23,134.6 417.29,134.6 186.53,0 328.83,-59.61 423.05,-180.74 157.7,-209.61 248.07,-534.6 269.22,-973.03l23.08 -2422.95zm7580.35 -3969.01l0 161.52c-680.73,173.07 -1226.85,394.22 -1638.37,667.28 -411.51,271.13 -736.5,601.89 -974.94,990.33 -238.46,386.52 -423.06,869.19 -555.75,1442.23 165.38,-111.54 303.84,-184.6 413.45,-219.22 244.21,-74.99 490.35,-111.54 738.42,-111.54 573.05,0 1049.93,207.68 1432.6,623.05 382.68,415.36 573.05,982.63 573.05,1699.91 0,503.82 -103.84,967.25 -309.6,1388.38 -207.68,421.14 -501.89,746.11 -880.72,974.94 -380.74,228.85 -786.5,344.21 -1219.15,344.21 -471.13,0 -905.73,-128.83 -1305.7,-386.51 -398.07,-257.68 -709.59,-634.58 -932.65,-1128.78 -224.99,-496.12 -336.52,-1036.47 -336.52,-1619.15 0,-855.71 205.76,-1653.75 617.28,-2392.17 411.52,-740.34 996.1,-1328.78 1753.75,-1765.29 757.64,-438.45 1632.6,-661.51 2624.85,-669.19zm-3242.13 3717.1c-30.77,521.13 -46.15,901.87 -46.15,1142.24 0,521.14 50,1024.96 150,1511.47 99.99,486.5 238.44,826.87 411.5,1023.01 125.01,140.39 273.08,209.61 442.3,209.61 173.06,0 328.81,-100 465.35,-301.91 136.53,-201.91 203.84,-613.43 203.84,-1230.71 0,-1040.32 -126.92,-1759.5 -380.75,-2155.64 -161.54,-255.75 -380.76,-384.6 -655.73,-384.6 -151.91,0 -348.07,61.54 -590.36,186.53zm3876.71 1209.55l3617.11 -4926.65 686.5 0 0 4926.65 703.82 0 0 1165.33 -703.82 0 0 1707.59 -1546.07 0 0 -1707.59 -2757.54 0 0 -1165.33zm526.9 0l2230.64 0 0 -3038.3 -2230.64 3038.3z"></path> </g> </svg>