<svg xmlns="http://www.w3.org/2000/svg" xmlns:serif="http://www.serif.com/" id="Vrstva_1" viewBox="0 0 100 100"><g><path d="m11.4 93.3c-.1 0-.1 0-.2 0-1.3-.1-2.2-1.2-2.1-2.4 1.3-19.1 19.3-34 40.9-34s39.6 14.9 40.9 33.9c.1 1.3-.9 2.3-2.1 2.4-1.3.1-2.3-.9-2.4-2.1-1.2-16.7-17.2-29.7-36.4-29.7-19.3 0-35.3 13.1-36.4 29.8-.1 1.2-1.1 2.1-2.2 2.1z"></path><path d="m50 52.3c-12.6 0-22.8-10.2-22.8-22.8s10.2-22.8 22.8-22.8 22.8 10.2 22.8 22.8-10.2 22.8-22.8 22.8zm0-41c-10 0-18.2 8.2-18.2 18.2s8.2 18.2 18.2 18.2 18.2-8.2 18.2-18.2-8.2-18.2-18.2-18.2z"></path></g></svg>