<svg xmlns="http://www.w3.org/2000/svg" id="Layer_1" height="512" viewBox="0 0 50 50" width="512"><g style="fill:none;stroke:#000;stroke-linecap:round;stroke-linejoin:round;stroke-miterlimit:10;stroke-width:1.5"><g><ellipse cx="15" cy="19.3" rx="4.2" ry="4.2"></ellipse><path d="m24 34.9c.3-.9.5-2 .5-3 0-5.2-4.2-6.3-9.5-6.3-5.2 0-9.5 1.1-9.5 6.3 0 1 .2 2.1.5 3z"></path></g><path d="m45.3 39.8h-40.5c-1.7 0-3-1.3-3-3v-23.6c0-1.7 1.3-3 3-3h40.5c1.7 0 3 1.3 3 3v23.6c0 1.7-1.4 3-3 3z"></path><g><g><path d="m29.3 15.6h14.2"></path><path d="m29.3 20.3h10.5"></path><path d="m40.4 25h3.1"></path><path d="m29.3 25h7.9"></path><path d="m34.1 29.7h9.4"></path><path d="m29.3 29.7h1.5"></path></g><path d="m29.3 34.4h9.5"></path></g></g></svg>