<svg xmlns="http://www.w3.org/2000/svg" height="512" viewBox="0 0 512 512" width="512"><g id="_x31_8_Returns"><g><path d="m203.057 1.667c-39.186 0-71.066 31.88-71.066 71.066v19.377h-32.382c-29.355 0-54.213 21.929-57.82 51.002l-37.831 301.706c-4.374 34.807 22.736 65.514 57.82 65.514h287.505c32.372 0 58.759-26.423 58.219-59.193 54.064-2.291 98.923-45.691 100.928-98.864 2.221-58.559-44.608-106.983-102.983-106.983h-23.355l-12.82-102.173c-3.607-29.081-28.465-51.01-57.82-51.01h-37.329v-19.375c.001-39.266-31.741-71.067-71.066-71.067zm65.768 169.48c2.929 0 5.299-2.373 5.299-5.299v-13.033c6.998 2.257 12.108 8.755 12.108 16.492 0 9.599-7.808 17.407-17.407 17.407s-17.407-7.808-17.407-17.407c0-7.737 5.11-14.235 12.108-16.492v13.033c0 2.927 2.37 5.299 5.299 5.299zm-126.237-98.413c0-33.342 27.125-60.469 60.469-60.469 33.411 0 60.469 27.011 60.469 60.469v19.376h-120.938zm-5.299 98.413c2.929 0 5.299-2.373 5.299-5.299v-13.033c6.998 2.257 12.108 8.755 12.108 16.492 0 9.599-7.808 17.407-17.407 17.407s-17.407-7.808-17.407-17.407c0-7.737 5.11-14.235 12.108-16.492v13.033c.001 2.927 2.371 5.299 5.299 5.299zm268.158 84.743c52.26 0 94.385 43.34 92.396 95.982v.003c-1.811 47.864-42.4 87.014-91.257 88.823l-4.945-39.3-1.041-8.323h3.44c23.228 0 42.917-16.698 45.794-38.842 3.539-27.163-17.652-50.653-44.387-50.653h-167.514c-9.247 0-16.771 7.524-16.771 16.773v5.914c0 4.963-5.516 7.859-9.594 5.146l-70.052-46.532c-3.69-2.449-3.692-7.839 0-10.289l70.052-46.532c4.096-2.723 9.594.2 9.594 5.143v5.914c0 9.249 7.524 16.773 16.771 16.773zm-6.172 126.586-8.539-68.301h14.711c20.011 0 36.638 17.497 33.883 38.69-2.199 16.882-17.371 29.611-35.29 29.611zm-87.823-279.769c24.02 0 44.356 17.935 47.305 41.725l12.654 100.861h-133.478c-3.405 0-6.173-2.771-6.173-6.176v-5.914c0-13.372-14.915-21.365-26.059-13.971l-70.052 46.532c-9.977 6.635-9.992 21.3 0 27.945l70.052 46.532c11.165 7.406 26.059-.623 26.059-13.974v-5.914c0-3.405 2.768-6.176 6.173-6.176h142.125c.067.544 13.316 106.415 16.531 131.965l.01-.003c-.204.53 3.85 53.597-47.316 53.597h-287.505c-28.761 0-50.88-25.17-47.305-53.597l37.831-301.714c2.949-23.782 23.285-41.717 47.305-41.717h32.382v39.135c-12.912 2.488-22.706 13.84-22.706 27.466 0 15.441 12.564 28.004 28.004 28.004s28.004-12.564 28.004-28.004c0-13.626-9.794-24.979-22.706-27.466v-39.135h120.938v39.135c-12.912 2.488-22.706 13.84-22.706 27.466 0 15.441 12.564 28.004 28.004 28.004s28.004-12.564 28.004-28.004c0-13.626-9.794-24.979-22.706-27.466v-39.135h37.331z"></path></g></g></svg>