<svg xmlns="http://www.w3.org/2000/svg" xmlns:xlink="http://www.w3.org/1999/xlink" xmlns:xodm="http://www.corel.com/coreldraw/odm/2003" xml:space="preserve" width="985.261mm" height="985.261mm" style="shape-rendering:geometricPrecision; text-rendering:geometricPrecision; image-rendering:optimizeQuality; fill-rule:evenodd; clip-rule:evenodd" viewBox="0 0 98526.1 98526.1"> <defs> <style type="text/css"> .fil0 {fill:#00AA00;fill-rule:nonzero} </style> </defs> <g id="Layer_x0020_1"> <metadata id="CorelCorpID_0Corel-Layer"></metadata> <g id="_1833644968736"> <g id="layer1"> <g id="g2387"> <path id="path2756" class="fil0" d="M43395.77 62879.95c-2977.33,-4593.11 -3797.66,-5673.41 -6220.85,-8192.02 -918.62,-954.74 -3143.79,-3044.3 -4945.15,-4643.34 -3823.25,-3393.95 -4820.08,-4328.59 -4820.08,-4518.25 0,-331 2346.18,-2396.88 6117.53,-5387.12 2932.13,-2324.42 3537.45,-2716.17 4197.53,-2716.17l532.14 0 648.37 1514.14c1467.5,3426.95 3576.43,8103.77 3911.02,8672.97 421.4,717.25 878.2,941.11 1324,648.85 368.07,-241.08 1828.39,-3103.61 3352.57,-6571.94 1331.18,-3029.22 4153.53,-8688.04 5886.98,-11802.89 2158.68,-3879.68 5084.59,-8449.83 6640.57,-10372.7 2123.53,-2624.08 6738.4,-6827.12 7058.16,-6513.1 46.63,45.92 -1075.75,717.97 -839.22,499.13 3147.13,-2910.6 120.54,5883.15 1332.85,15583.33 384.09,3072.75 -43.29,3240.64 -1243.65,4262.35 -4044.47,3442.73 -5742.76,5240.28 -8689.47,9198.17 -5249.85,7051.22 -8467.54,12231.71 -11471.18,18469.54 -607.95,1262.29 -1215.66,2449.97 -1350.54,2639.63 -406.34,570.64 -631.15,448.91 -1421.58,-770.58l0 0z"></path> <path id="path2762" class="fil0" d="M45863.44 97927.01c-4900.67,-462.54 -7855.28,-1038.69 -11691.92,-2280.18 -10289.47,-3329.37 -19172.67,-10010.61 -25289.72,-19020.56 -4321.66,-6365.78 -6904.37,-13153.2 -8030.11,-21101.75 -240.11,-1696.14 -276.47,-2483.46 -280.06,-6088.35 -4.3,-4220.26 58.12,-5121.66 567.3,-8200.87 2700.14,-16330.23 13704.23,-30283.19 29040.98,-36822.84 8992.49,-3834.49 18935.9,-4843.27 28660.47,-2907.49 18209.32,3624.98 32918.99,17556.17 37559.93,35572.25 2561.67,9944.84 1925.5,20495.72 -1810.45,30032.55 -6003.21,15323.36 -19608.67,26726.61 -35749.48,29962.95 -3391.08,679.94 -6188.56,940.38 -9825.5,914.31 -1495.48,-10.52 -2913.47,-37.54 -3151.44,-60.02zm7971.51 -3387.5c13421.78,-1335.96 25603.51,-8713.87 33148.59,-20076.22 7763.44,-11691.2 9559.31,-26711.06 4783.72,-40010.87 -3402.56,-9476.8 -9742.98,-17384.7 -18367.41,-22908.86 -2011.59,-1288.37 -6006.56,-3277.96 -8256.35,-4111.68 -16658.36,-6172.77 -35191.04,-2145.04 -47703.52,10367.44 -10499.46,10499.7 -15122.94,25340.9 -12473.5,40041 1208.25,6704.2 4099,13291.92 8270.7,18847.65 1483.29,1975.24 2095.54,2684.6 3933.98,4557.24 7752.2,7897.13 17730.52,12523.96 28939.34,13419.15 1675.09,133.69 5796.09,67.2 7724.45,-124.85l0 0z"></path> <g id="g2768"> <path id="path2758" class="fil0" d="M21268.96 72596.63l0 -9220.18 3429.59 59.07c3594.85,61.94 4083.21,127 5271.85,702.42 1395.99,675.87 2309.83,2001.31 2544.69,3691.71 361.61,2601.6 -814.35,4514.18 -3133.98,5097.5l-600.78 151.15 626.6 298c1210.88,575.42 1547.62,1080.05 3961.73,5937.91l1243.64 2502.83 -1266.84 0 -1267.08 0 -1342.42 -2844.59c-738.06,-1564.36 -1544.03,-3133.26 -1790.61,-3486.27 -874.85,-1252.25 -1708.33,-1571.05 -4123.15,-1576.55l-1081.49 -2.39 0 3954.78 0 3955.02 -1235.99 0 -1235.76 0 0 -9220.41zm6249.55 -676.35c1013.33,-184.16 1704.51,-615.13 2120.41,-1322.33 313.3,-533.09 343.2,-691.18 343.2,-1819.79 0,-1089.14 -36.83,-1301.28 -309,-1786.3 -404.9,-721.07 -1191.74,-1308.69 -1978.35,-1477.54 -346.06,-74.14 -1377.33,-134.89 -2291.65,-134.89l-1662.41 0 0 3337.03 0 3336.79 1522.26 0c837.07,0 1852.07,-59.79 2255.54,-132.97l0 0z"></path> <path id="path2760" class="fil0" d="M40281.64 81833.07c-925.32,-303.98 -1433.78,-630.43 -2113.48,-1357.25 -1098.23,-1174.04 -1566.51,-2560.47 -1664.57,-4928.17 -136.32,-3287.76 611.06,-5510.54 2281.37,-6784.55 1595.69,-1217.1 4747.61,-1389.54 6526.5,-356.83 676.58,392.7 1573.68,1375.42 1970.93,2159.39 727.29,1435.45 1045.38,3678.79 813.87,5741.09 -318.09,2835.27 -1457.45,4624.68 -3437.72,5399.8 -1003.28,392.71 -3359.99,460.87 -4376.9,126.52l0 0zm3603.21 -1908.04c734.95,-376.68 1296.02,-1139.13 1637.55,-2225.64 376.2,-1196.53 407.29,-4296.79 54.53,-5460.79 -547.21,-1805.91 -1612.2,-2678.85 -3268.16,-2678.85 -1339.06,0 -2161.06,457.99 -2816.61,1569.38 -917.42,1555.51 -975.3,5657.14 -104.03,7386.76 410.88,815.78 1225.7,1483.04 2087.88,1709.53 604.36,159.04 1804.48,9.33 2408.84,-300.39l0 0z"></path> <polygon id="path2764" class="fil0" points="51672.21,72609.54 51672.21,63402.04 52846.26,63402.04 54020.31,63402.04 54020.31,67171.47 54020.31,70940.91 57542.68,70940.91 61065.06,70940.91 61065.06,67171.47 61065.06,63402.04 62239.11,63402.04 63413.16,63402.04 63413.16,72609.54 63413.16,81817.04 62240.79,81817.04 61068.17,81817.04 61035.65,77398.52 61003.12,72980.24 57542.68,72980.24 54082.25,72980.24 54049.72,77398.52 54017.2,81817.04 52844.82,81817.04 51672.21,81817.04 "></polygon> <path id="path2766" class="fil0" d="M69963.57 81879.7c-441.97,-88.72 -1262.3,-313.3 -1822.89,-499.13l-1019.79 -337.93 0 -1252.97 0 -1252.97 1328.78 645.97c3280.59,1594.98 6558.79,1279.28 7583.83,-730.4 545.29,-1068.34 406.34,-2715.44 -296.56,-3515.92 -552.46,-629.24 -1327.35,-965.74 -3378.88,-1467.26 -2057.75,-502.96 -3354.01,-1042.99 -4082.5,-1701.4 -1884.83,-1702.59 -1789.41,-5155.62 194.2,-7047.87 1224.51,-1167.83 2370.82,-1573.45 4459.9,-1578.23 1342.18,-2.87 2577.21,199.7 3924.17,643.83l772.26 254.7 0 1174.29c0,645.98 -41.62,1155.87 -92.56,1133.15 -50.94,-22.72 -465.65,-223.62 -921.25,-446.52 -3183.49,-1556.94 -6641.3,-963.34 -7260.01,1246.52 -218.59,780.86 -108.34,1931.23 238.69,2493.02 363.76,588.34 1640.41,1183.38 3420.25,1593.78 3093.8,713.66 4399.87,1525.61 5195.56,3228.93 323.59,692.85 346.31,847.11 346.31,2348.33 0,1560.05 -11.48,1630.37 -399.64,2423.19 -673,1375.66 -1922.15,2295.48 -3600.83,2651.35 -1014.28,215.01 -3503,211.42 -4589.04,-6.46l0 0z"></path> </g> </g> </g> </g> </g> </svg>