<svg xmlns="http://www.w3.org/2000/svg" viewBox="0 0 512 512"><g id="_x32_5__Secure_Checkout"><g><path d="m29.963 381.701h175.304c12.39 45.425 42.25 85.087 83.871 109.124l.019.012c1.521.949 3.467.981 5.028.076 41.729-24.103 71.617-63.782 84.014-109.211h26.521c12.143 0 22.02-9.877 22.02-22.02v-70.49h55.298c12.143 0 22.02-9.877 22.02-22.02 0-49.782 0-176.504 0-224.719 0-12.143-9.877-22.02-22.02-22.02h-374.759c-12.143 0-22.02 9.877-22.02 22.02v70.49h-55.296c-12.143 0-22.02 9.877-22.02 22.02v224.717c0 12.143 9.877 22.021 22.02 22.021zm261.785 99.374c-50.23-30.121-81.733-84.351-83.068-142.86 33.893-8.058 61.82-23.984 83.135-47.399 25.564 27.186 52.79 42.849 82.966 47.731-1.45 58.47-33.013 112.618-83.033 142.528zm202.582-213.906c0 6.778-5.515 12.293-12.293 12.293h-55.298v-140.869h67.591zm0-138.304h-68.556c-2.664-9.165-11.041-15.924-21.055-15.924h-309.73v-24.809h399.341zm-399.344-86.415c0-6.778 5.515-12.293 12.293-12.293h374.758c6.778 0 12.293 5.515 12.293 12.293v35.954h-399.344zm-77.316 92.511c0-6.778 5.515-12.293 12.293-12.293h374.755c6.778 0 12.293 5.515 12.293 12.293v224.719c0 6.778-5.515 12.293-12.293 12.293h-24.203c2.625-12.253 4.044-24.847 4.044-37.628 0-2.449-1.822-4.517-4.251-4.826-30.957-3.926-58.746-20.03-84.956-49.23-.94-1.047-2.363-1.639-3.691-1.615-1.406.021-2.734.648-3.641 1.722-21.101 24.932-49.793 41.485-85.284 49.197-2.235.484-3.831 2.465-3.831 4.752 0 12.782 1.419 25.376 4.043 37.628h-172.985c-6.778 0-12.293-5.515-12.293-12.293z"></path><path d="m58.726 246.047h48.779c7.968 0 14.451-6.484 14.451-14.451v-48.779c0-7.968-6.484-14.451-14.451-14.451h-48.779c-7.968 0-14.451 6.484-14.451 14.451v48.779c-.001 7.967 6.483 14.451 14.451 14.451zm-4.724-63.231c0-2.605 2.118-4.724 4.724-4.724h48.779c2.605 0 4.724 2.118 4.724 4.724v48.779c0 2.605-2.118 4.724-4.724 4.724h-48.779c-2.605 0-4.724-2.118-4.724-4.724z"></path><path d="m49.138 288.995h63.746c2.686 0 4.864-2.178 4.864-4.864s-2.178-4.864-4.864-4.864h-63.746c-2.686 0-4.864 2.178-4.864 4.864s2.178 4.864 4.864 4.864z"></path><path d="m140.025 288.995h63.746c2.686 0 4.864-2.178 4.864-4.864s-2.178-4.864-4.864-4.864h-63.746c-2.686 0-4.864 2.178-4.864 4.864s2.178 4.864 4.864 4.864z"></path><path d="m49.138 326.279h115.052c2.686 0 4.864-2.178 4.864-4.864s-2.178-4.864-4.864-4.864h-115.052c-2.686 0-4.864 2.178-4.864 4.864s2.178 4.864 4.864 4.864z"></path><path d="m240.033 381.477c0 26.101 21.234 47.335 47.335 47.335 26.103 0 47.337-21.234 47.337-47.335 0-5.566-1.036-10.878-2.814-15.841l7.412-7.412c5.494-5.494 5.534-14.416-.002-19.952-5.329-5.329-14.62-5.329-19.949 0l-4.624 4.624c-7.73-5.504-17.167-8.757-27.359-8.757-26.101.001-47.336 21.235-47.336 47.338zm86.196-36.327c1.703-1.705 4.484-1.708 6.196.002 1.705 1.705 1.717 4.474 0 6.191l-38.388 38.393c-1.026 1.026-2.392 1.591-3.84 1.591-.002 0-.002 0-.002 0-1.451 0-2.817-.568-3.843-1.594-.019-.021-.04-.04-.059-.059l-12.832-12.409c-1.705-1.708-1.703-4.484.002-6.191 1.65-1.65 4.381-1.808 6.305.112l7.089 6.669c1.917 1.8 4.914 1.755 6.771-.105zm-36.144 22.389-3.541-3.332c-5.514-5.519-14.442-5.526-19.959-.009-5.498 5.496-5.5 14.442.052 20.002l12.863 12.442c2.859 2.845 6.655 4.413 10.69 4.415h.007c4.047 0 7.854-1.577 10.718-4.441l23.146-23.147c.576 2.584.917 5.254.917 8.009 0 20.736-16.872 37.607-37.609 37.607-20.736 0-37.607-16.872-37.607-37.607 0-20.738 16.872-37.609 37.607-37.609 7.502 0 14.475 2.237 20.345 6.043z"></path></g></g><g id="Layer_1"></g></svg>