<svg xmlns="http://www.w3.org/2000/svg" xmlns:xlink="http://www.w3.org/1999/xlink" xmlns:xodm="http://www.corel.com/coreldraw/odm/2003" xml:space="preserve" width="985.261mm" height="985.261mm" style="shape-rendering:geometricPrecision; text-rendering:geometricPrecision; image-rendering:optimizeQuality; fill-rule:evenodd; clip-rule:evenodd" viewBox="0 0 98526.1 98526.1"> <defs> <style type="text/css"> .str0 {stroke:#2B2A29;stroke-width:16.93;stroke-miterlimit:22.9256} .fil1 {fill:none} .fil0 {fill:#5FAA44;fill-rule:nonzero} </style> </defs> <g id="Layer_x0020_1"> <metadata id="CorelCorpID_0Corel-Layer"></metadata> <g id="_1838192499952"> <path class="fil0" d="M17610.99 56596.47c-738.94,0 -1441.86,-72.06 -2101.85,-212.72 -663.44,-140.66 -1280.12,-349.92 -1856.94,-630.86 -573.37,-285.15 -1110.34,-634.69 -1607.82,-1056.67l0 0 1341.06 -1647.68 0 0c584.1,504.77 1229.53,886.89 1932.45,1139.46 703.3,252.19 1467.54,378.67 2293.1,378.67 1110.72,0 1972.31,-205.81 2585.54,-616.68 612.85,-410.86 919.08,-994.97 919.08,-1748.86l0 -10.73c0,-533.51 -136.83,-958.94 -414.31,-1272.84 -281.32,-313.52 -638.53,-544.24 -1078.14,-695.64 -440,-151.39 -1009.54,-292.05 -1705.55,-418.14 -21.47,-7.28 -46.76,-11.12 -68.61,-11.12 -25.29,0 -50.21,-3.45 -72.05,-10.73l-154.84 -28.74c-1031.38,-176.69 -1867.68,-378.67 -2509.65,-598.67 -645.43,-223.45 -1196.96,-627.41 -1654.96,-1214.97 -458.01,-587.55 -684.91,-1424.23 -684.91,-2509.65l0 -10.73c0,-948.21 212.72,-1759.59 638.15,-2433.76 425.43,-670.72 1049.01,-1186.22 1864.22,-1535.76 818.28,-353.38 1799.07,-530.07 2949.26,-530.07 548.08,0 1088.87,61.33 1618.93,180.14 533.52,119.2 1056.3,299.33 1575.63,533.51 515.49,234.56 1023.71,533.9 1525.03,894.55l0 0 -1226.08 1709 0 0c-584.11,-429.26 -1164.38,-750.06 -1748.48,-966.6 -580.65,-212.72 -1160.92,-320.8 -1745.03,-320.8 -1049.39,0 -1867.67,209.27 -2448.32,627.41 -580.28,418.15 -868.88,1013.37 -868.88,1781.06l0 10.73c0,526.61 147.94,941.31 446.9,1244.09 299.33,302.79 674.55,526.23 1121.44,670.73 447.28,144.1 1067.41,295.5 1864.23,450.72 28.74,7.28 54.04,10.73 79.33,14.18 25.3,3.83 50.21,11.12 79.34,18.02 36.03,7.28 72.06,14.56 115.36,21.84 43.31,3.45 79.34,10.73 115.37,18.02 930.19,190.86 1705.17,418.14 2329.13,677.62 623.58,259.85 1146.36,681.45 1564.89,1262.1 418.15,580.66 627.41,1373.64 627.41,2383.18l0 18.01c0,937.48 -219.99,1738.13 -663.44,2405.02 -447.27,666.89 -1088.87,1171.65 -1928.99,1521.58 -843.96,349.54 -1856.95,522.78 -3047,522.78zm12980.2 0c-1012.98,0 -1881.85,-191.25 -2599.72,-569.54 -717.48,-382.5 -1265.17,-941.31 -1640.39,-1676.81 -378.67,-735.49 -566.09,-1622.38 -566.09,-2664.49l0 -1236.81c0,-1085.04 180.52,-2011.78 544.62,-2779.86 360.28,-767.68 886.89,-1351.79 1579.07,-1752.31 688.74,-400.13 1521.59,-602.11 2491.64,-602.11 915.63,0 1697.89,230.73 2347.15,685.28 645.42,458.01 1139.07,1121.07 1481.72,1986.49 342.64,865.43 512.05,1907.54 512.05,3119.05l0 717.48 -7391.36 0 0 -1734.29 5343.55 0 0 0c-65.16,-894.17 -295.89,-1590.19 -692.57,-2084.22 -396.3,-497.49 -930.2,-746.23 -1600.54,-746.23 -814.83,0 -1449.52,266.76 -1896.8,804.1 -446.89,533.51 -670.34,1290.85 -670.34,2271.26l0 1392.03c0,908.35 241.46,1607.82 717.48,2091.12 479.47,486.76 1160.93,732.05 2040.53,732.05 436.16,0 868.87,-90.45 1298.14,-267.14 428.87,-172.86 814.83,-421.6 1153.64,-738.95l0 0 1413.5 1416.95 0 0c-540.8,519.33 -1150.2,922.92 -1828.2,1207.69 -674.17,285.15 -1355.63,429.26 -2037.08,429.26zm7110.04 -15518.21l2152.44 0 0 2155.89 -2152.44 0 0 -2155.89zm0 4394.95l2152.44 0 0 10964.59 -2152.44 0 0 -10964.59zm9305.79 11123.26c-648.88,0 -1254.83,-64.77 -1820.91,-191.25 -569.54,-126.1 -1099.61,-317.35 -1589.81,-569.54 -494.03,-252.58 -948.59,-569.54 -1362.91,-952.04l0 0 1276.29 -1571.79 0 0c591.39,450.72 1178.94,789.53 1766.49,1012.98 584.11,227.28 1161.31,339.19 1730.85,339.19 850.86,0 1492.84,-133.38 1918.27,-396.68 425.43,-263.31 638.14,-659.99 638.14,-1190.05 0,-349.55 -115.36,-616.3 -349.93,-789.54 -230.72,-176.69 -518.94,-295.5 -865.42,-356.82 -346.09,-57.88 -829.01,-111.92 -1456.42,-162.13 -57.88,0 -115.37,0 -180.14,-3.83 -65.16,-3.45 -122.65,-10.73 -180.52,-18.01 -28.75,0 -54.04,0 -82.79,-3.45 -28.74,-3.84 -57.87,-7.29 -86.62,-7.29 -710.19,-54.04 -1312.31,-158.67 -1806.35,-310.06 -490.2,-151.39 -901.45,-436.16 -1229.53,-850.86 -328.08,-414.7 -490.2,-1009.53 -490.2,-1784.89 0,-775.35 158.68,-1420.4 475.64,-1932.44 313.9,-515.89 786.09,-901.45 1413.5,-1157.48 627.41,-256.02 1413.5,-385.95 2357.87,-385.95 569.93,0 1114.17,54.04 1630.05,158.67 518.95,104.63 1012.98,263.31 1485.17,468.74 472.57,209.27 926.75,472.57 1362.91,789.54l0 0 -1301.59 1572.17 0 0c-548.07,-353.38 -1088.86,-616.68 -1618.93,-793.37 -533.51,-172.85 -1052.46,-262.92 -1557.61,-262.92 -735.49,0 -1283.57,126.09 -1651.12,374.84 -364.11,248.74 -548.08,623.96 -548.08,1124.89 0,295.89 104.63,519.33 313.52,667.28 205.81,147.55 468.74,244.9 786.08,295.5 317.35,46.76 768.08,90.06 1352.18,126.09 43.31,7.28 86.62,10.73 129.93,10.73 46.76,0 93.52,3.84 144.11,11.12 21.46,0 43.31,0 64.77,0 18.01,0 39.86,3.45 61.32,10.73 768.08,46.76 1420.78,151.39 1961.58,306.23 536.96,155.23 991.52,461.84 1355.62,919.47 367.56,458 548.08,1118 548.08,1983.04 0,789.91 -165.96,1442.24 -504.77,1961.57 -338.81,515.5 -847.41,904.9 -1528.86,1168.21 -677.62,259.47 -1532.31,389.4 -2559.86,389.4zm20439.78 -6803.81c0,-774.97 -201.98,-1373.64 -602.12,-1795.62 -403.96,-421.59 -966.22,-634.31 -1690.98,-634.31 -670.73,0 -1186.22,205.43 -1554.16,612.85 -364.11,410.87 -548.08,988.07 -548.08,1734.3l-432.71 -2112.97c342.64,-724.76 800.65,-1287.02 1366.74,-1683.7 566.09,-400.14 1193.5,-598.67 1874.96,-598.67 789.53,0 1463.7,173.24 2022.51,522.78 558.81,349.92 988.07,858.14 1280.12,1525.41 292.05,670.72 436.16,1478.27 436.16,2419.2l0 6655.87 -2152.44 0 0 -6645.14zm-13099.01 -4319.45l2152.44 0 0 10964.59 -2152.44 0 0 -10964.59zm6547.78 4319.45c0,-774.97 -191.25,-1373.64 -569.92,-1795.62 -382.12,-421.59 -919.08,-634.31 -1615.1,-634.31 -706.75,0 -1247.55,187.42 -1633.5,562.26 -382.12,371.39 -576.82,898 -576.82,1572.17l-220 -2112.96c339.2,-659.61 778.81,-1171.66 1326.88,-1532.32 544.63,-356.82 1146.75,-537.34 1810.19,-537.34 768.07,0 1424.23,173.24 1965.02,522.78 540.8,349.92 955.49,858.14 1240.26,1525.41 284.77,670.72 428.88,1478.27 428.88,2419.2l0 6655.87 -2155.89 0 0 -6645.14zm11981.01 -8714.4l2152.45 0 0 2155.89 -2152.45 0 0 -2155.89zm0 4394.95l2152.45 0 0 10964.59 -2152.45 0 0 -10964.59zm9853.87 11123.26c-998.8,0 -1853.49,-187.42 -2559.86,-558.81 -706.75,-375.22 -1247.54,-916.01 -1622.76,-1629.66 -371.39,-710.58 -558.81,-1568.73 -558.81,-2574.43l0 -1806.35c0,-995.35 187.42,-1842.37 558.81,-2545.67 375.22,-706.75 916.01,-1243.71 1622.76,-1611.65 706.37,-371.39 1561.06,-555.36 2559.86,-555.36 573.37,0 1106.88,68.6 1611.65,205.81 504.77,136.83 955.49,334.98 1359.08,598.29 400.51,259.86 735.87,576.82 1002.63,948.21l0 0 -1554.16 1395.48 0 0c-310.06,-353.37 -670.72,-623.58 -1088.87,-814.83 -414.7,-187.42 -847.41,-284.77 -1297.75,-284.77 -829.4,0 -1474.82,234.18 -1932.83,699.47 -458.01,464.91 -684.9,1117.61 -684.9,1965.02l0 1806.35c0,865.43 226.89,1532.32 681.45,2004.51 450.73,472.57 1099.6,710.58 1936.28,710.58 457.62,0 894.17,-104.63 1308.48,-306.62 418.53,-205.43 775.36,-494.03 1078.14,-868.87l0 0 1554.16 1499.73 0 0c-274.04,367.94 -613.23,678.01 -1013.37,937.48 -403.58,256.03 -854.3,450.73 -1359.07,584.11 -501.32,133.37 -1034.83,201.98 -1600.92,201.98z"></path> <rect class="fil1 str0" x="2016.27" y="2944.06" width="94715.66" height="91627.55" rx="5841.12" ry="5841.12"></rect> </g> </g> </svg>